<?xml version="1.0" encoding="utf-8" standalone="no"?>
<!DOCTYPE svg PUBLIC "-//W3C//DTD SVG 1.1//EN"
  "http://www.w3.org/Graphics/SVG/1.1/DTD/svg11.dtd">
<svg xmlns:xlink="http://www.w3.org/1999/xlink" width="460.8pt" height="288pt" viewBox="0 0 460.8 288" xmlns="http://www.w3.org/2000/svg" version="1.1">
 <metadata>
  <rdf:RDF xmlns:dc="http://purl.org/dc/elements/1.1/" xmlns:cc="http://creativecommons.org/ns#" xmlns:rdf="http://www.w3.org/1999/02/22-rdf-syntax-ns#">
   <cc:Work>
    <dc:type rdf:resource="http://purl.org/dc/dcmitype/StillImage"/>
    <dc:date>2026-09-13T02:01:45.169419</dc:date>
    <dc:format>image/svg+xml</dc:format>
    <dc:creator>
     <cc:Agent>
      <dc:title>Matplotlib v3.11.2, https://matplotlib.org/</dc:title>
     </cc:Agent>
    </dc:creator>
   </cc:Work>
  </rdf:RDF>
 </metadata>
 <defs>
  <style type="text/css">*{stroke-linejoin: round; stroke-linecap: butt}</style>
 </defs>
 <g id="figure_1">
  <g id="patch_1">
   <path d="M 0 288 
L 460.8 288 
L 460.8 0 
L 0 0 
z
" style="fill: #ffffff"/>
  </g>
  <g id="axes_1">
   <g id="patch_2">
    <path d="M 102.627379 258.545483 
L 358.172621 258.545483 
L 358.172621 3.00024 
L 102.627379 3.00024 
z
" style="fill: #ffffff"/>
   </g>
   <g id="PathCollection_1">
    <defs>
     <path id="m4c91d32dd0" d="M 0 2.236068 
C 0.593012 2.236068 1.161816 2.000462 1.581139 1.581139 
C 2.000462 1.161816 2.236068 0.593012 2.236068 0 
C 2.236068 -0.593012 2.000462 -1.161816 1.581139 -1.581139 
C 1.161816 -2.000462 0.593012 -2.236068 0 -2.236068 
C -0.593012 -2.236068 -1.161816 -2.000462 -1.581139 -1.581139 
C -2.000462 -1.161816 -2.236068 -0.593012 -2.236068 0 
C -2.236068 0.593012 -2.000462 1.161816 -1.581139 1.581139 
C -1.161816 2.000462 -0.593012 2.236068 0 2.236068 
z
" style="stroke: #e69f00; stroke-width: 0.6"/>
    </defs>
    <g clip-path="url(#pc04237d3f4)">
     <use xlink:href="#m4c91d32dd0" x="230.4" y="130.772861" style="fill: #e69f00; stroke: #e69f00; stroke-width: 0.6"/>
     <use xlink:href="#m4c91d32dd0" x="292.603452" y="130.772861" style="fill: #e69f00; stroke: #e69f00; stroke-width: 0.6"/>
     <use xlink:href="#m4c91d32dd0" x="274.384483" y="86.788379" style="fill: #e69f00; stroke: #e69f00; stroke-width: 0.6"/>
     <use xlink:href="#m4c91d32dd0" x="230.4" y="68.56941" style="fill: #e69f00; stroke: #e69f00; stroke-width: 0.6"/>
     <use xlink:href="#m4c91d32dd0" x="186.415517" y="86.788379" style="fill: #e69f00; stroke: #e69f00; stroke-width: 0.6"/>
     <use xlink:href="#m4c91d32dd0" x="168.196548" y="130.772861" style="fill: #e69f00; stroke: #e69f00; stroke-width: 0.6"/>
     <use xlink:href="#m4c91d32dd0" x="186.415517" y="174.757344" style="fill: #e69f00; stroke: #e69f00; stroke-width: 0.6"/>
     <use xlink:href="#m4c91d32dd0" x="230.4" y="192.976313" style="fill: #e69f00; stroke: #e69f00; stroke-width: 0.6"/>
     <use xlink:href="#m4c91d32dd0" x="274.384483" y="174.757344" style="fill: #e69f00; stroke: #e69f00; stroke-width: 0.6"/>
     <use xlink:href="#m4c91d32dd0" x="344.959062" y="130.772861" style="fill: #e69f00; stroke: #e69f00; stroke-width: 0.6"/>
     <use xlink:href="#m4c91d32dd0" x="336.238773" y="86.933006" style="fill: #e69f00; stroke: #e69f00; stroke-width: 0.6"/>
     <use xlink:href="#m4c91d32dd0" x="311.40549" y="49.767371" style="fill: #e69f00; stroke: #e69f00; stroke-width: 0.6"/>
     <use xlink:href="#m4c91d32dd0" x="274.239855" y="24.934088" style="fill: #e69f00; stroke: #e69f00; stroke-width: 0.6"/>
     <use xlink:href="#m4c91d32dd0" x="230.4" y="16.213799" style="fill: #e69f00; stroke: #e69f00; stroke-width: 0.6"/>
     <use xlink:href="#m4c91d32dd0" x="186.560145" y="24.934088" style="fill: #e69f00; stroke: #e69f00; stroke-width: 0.6"/>
     <use xlink:href="#m4c91d32dd0" x="149.39451" y="49.767371" style="fill: #e69f00; stroke: #e69f00; stroke-width: 0.6"/>
     <use xlink:href="#m4c91d32dd0" x="124.561227" y="86.933006" style="fill: #e69f00; stroke: #e69f00; stroke-width: 0.6"/>
     <use xlink:href="#m4c91d32dd0" x="115.840938" y="130.772861" style="fill: #e69f00; stroke: #e69f00; stroke-width: 0.6"/>
     <use xlink:href="#m4c91d32dd0" x="124.561227" y="174.612717" style="fill: #e69f00; stroke: #e69f00; stroke-width: 0.6"/>
     <use xlink:href="#m4c91d32dd0" x="149.39451" y="211.778351" style="fill: #e69f00; stroke: #e69f00; stroke-width: 0.6"/>
     <use xlink:href="#m4c91d32dd0" x="186.560145" y="236.611634" style="fill: #e69f00; stroke: #e69f00; stroke-width: 0.6"/>
     <use xlink:href="#m4c91d32dd0" x="230.4" y="245.331924" style="fill: #e69f00; stroke: #e69f00; stroke-width: 0.6"/>
     <use xlink:href="#m4c91d32dd0" x="274.239855" y="236.611634" style="fill: #e69f00; stroke: #e69f00; stroke-width: 0.6"/>
     <use xlink:href="#m4c91d32dd0" x="311.40549" y="211.778351" style="fill: #e69f00; stroke: #e69f00; stroke-width: 0.6"/>
     <use xlink:href="#m4c91d32dd0" x="336.238773" y="174.612717" style="fill: #e69f00; stroke: #e69f00; stroke-width: 0.6"/>
    </g>
   </g>
   <g id="matplotlib.axis_1">
    <g id="xtick_1">
     <g id="line2d_1">
      <defs>
       <path id="m4623131273" d="M 0 0 
L 0 3 
" style="stroke: #000000; stroke-width: 0.6"/>
      </defs>
      <g>
       <use xlink:href="#m4623131273" x="105.743784" y="258.545483" style="stroke: #000000; stroke-width: 0.6"/>
      </g>
     </g>
     <g id="text_1">
      <text style="font-size: 8px; font-family: 'Arial', 'Helvetica', 'DejaVu Sans', sans-serif; text-anchor: middle" x="105.743784" y="270.869701" transform="rotate(-0 105.743784 270.869701)">-2000</text>
     </g>
    </g>
    <g id="xtick_2">
     <g id="line2d_2">
      <g>
       <use xlink:href="#m4623131273" x="136.907838" y="258.545483" style="stroke: #000000; stroke-width: 0.6"/>
      </g>
     </g>
     <g id="text_2">
      <text style="font-size: 8px; font-family: 'Arial', 'Helvetica', 'DejaVu Sans', sans-serif; text-anchor: middle" x="136.907838" y="270.869701" transform="rotate(-0 136.907838 270.869701)">-1500</text>
     </g>
    </g>
    <g id="xtick_3">
     <g id="line2d_3">
      <g>
       <use xlink:href="#m4623131273" x="168.071892" y="258.545483" style="stroke: #000000; stroke-width: 0.6"/>
      </g>
     </g>
     <g id="text_3">
      <text style="font-size: 8px; font-family: 'Arial', 'Helvetica', 'DejaVu Sans', sans-serif; text-anchor: middle" x="168.071892" y="270.869701" transform="rotate(-0 168.071892 270.869701)">-1000</text>
     </g>
    </g>
    <g id="xtick_4">
     <g id="line2d_4">
      <g>
       <use xlink:href="#m4623131273" x="199.235946" y="258.545483" style="stroke: #000000; stroke-width: 0.6"/>
      </g>
     </g>
     <g id="text_4">
      <text style="font-size: 8px; font-family: 'Arial', 'Helvetica', 'DejaVu Sans', sans-serif; text-anchor: middle" x="199.235946" y="270.869701" transform="rotate(-0 199.235946 270.869701)">-500</text>
     </g>
    </g>
    <g id="xtick_5">
     <g id="line2d_5">
      <g>
       <use xlink:href="#m4623131273" x="230.4" y="258.545483" style="stroke: #000000; stroke-width: 0.6"/>
      </g>
     </g>
     <g id="text_5">
      <text style="font-size: 8px; font-family: 'Arial', 'Helvetica', 'DejaVu Sans', sans-serif; text-anchor: middle" x="230.4" y="270.869701" transform="rotate(-0 230.4 270.869701)">0</text>
     </g>
    </g>
    <g id="xtick_6">
     <g id="line2d_6">
      <g>
       <use xlink:href="#m4623131273" x="261.564054" y="258.545483" style="stroke: #000000; stroke-width: 0.6"/>
      </g>
     </g>
     <g id="text_6">
      <text style="font-size: 8px; font-family: 'Arial', 'Helvetica', 'DejaVu Sans', sans-serif; text-anchor: middle" x="261.564054" y="270.869701" transform="rotate(-0 261.564054 270.869701)">500</text>
     </g>
    </g>
    <g id="xtick_7">
     <g id="line2d_7">
      <g>
       <use xlink:href="#m4623131273" x="292.728108" y="258.545483" style="stroke: #000000; stroke-width: 0.6"/>
      </g>
     </g>
     <g id="text_7">
      <text style="font-size: 8px; font-family: 'Arial', 'Helvetica', 'DejaVu Sans', sans-serif; text-anchor: middle" x="292.728108" y="270.869701" transform="rotate(-0 292.728108 270.869701)">1000</text>
     </g>
    </g>
    <g id="xtick_8">
     <g id="line2d_8">
      <g>
       <use xlink:href="#m4623131273" x="323.892162" y="258.545483" style="stroke: #000000; stroke-width: 0.6"/>
      </g>
     </g>
     <g id="text_8">
      <text style="font-size: 8px; font-family: 'Arial', 'Helvetica', 'DejaVu Sans', sans-serif; text-anchor: middle" x="323.892162" y="270.869701" transform="rotate(-0 323.892162 270.869701)">1500</text>
     </g>
    </g>
    <g id="xtick_9">
     <g id="line2d_9">
      <g>
       <use xlink:href="#m4623131273" x="355.056216" y="258.545483" style="stroke: #000000; stroke-width: 0.6"/>
      </g>
     </g>
     <g id="text_9">
      <text style="font-size: 8px; font-family: 'Arial', 'Helvetica', 'DejaVu Sans', sans-serif; text-anchor: middle" x="355.056216" y="270.869701" transform="rotate(-0 355.056216 270.869701)">2000</text>
     </g>
    </g>
    <g id="text_10">
     <text style="font-size: 9px; font-family: 'Arial', 'Helvetica', 'DejaVu Sans', sans-serif; text-anchor: middle" x="230.4" y="283.105541" transform="rotate(-0 230.4 283.105541)">East (m)</text>
    </g>
   </g>
   <g id="matplotlib.axis_2">
    <g id="ytick_1">
     <g id="line2d_10">
      <defs>
       <path id="m13e5f94dc6" d="M 0 0 
L -3 0 
" style="stroke: #000000; stroke-width: 0.6"/>
      </defs>
      <g>
       <use xlink:href="#m13e5f94dc6" x="102.627379" y="255.429077" style="stroke: #000000; stroke-width: 0.6"/>
      </g>
     </g>
     <g id="text_11">
      <text style="font-size: 8px; font-family: 'Arial', 'Helvetica', 'DejaVu Sans', sans-serif; text-anchor: end" x="96.127379" y="258.341187" transform="rotate(-0 96.127379 258.341187)">-2000</text>
     </g>
    </g>
    <g id="ytick_2">
     <g id="line2d_11">
      <g>
       <use xlink:href="#m13e5f94dc6" x="102.627379" y="224.265023" style="stroke: #000000; stroke-width: 0.6"/>
      </g>
     </g>
     <g id="text_12">
      <text style="font-size: 8px; font-family: 'Arial', 'Helvetica', 'DejaVu Sans', sans-serif; text-anchor: end" x="96.127379" y="227.177133" transform="rotate(-0 96.127379 227.177133)">-1500</text>
     </g>
    </g>
    <g id="ytick_3">
     <g id="line2d_12">
      <g>
       <use xlink:href="#m13e5f94dc6" x="102.627379" y="193.100969" style="stroke: #000000; stroke-width: 0.6"/>
      </g>
     </g>
     <g id="text_13">
      <text style="font-size: 8px; font-family: 'Arial', 'Helvetica', 'DejaVu Sans', sans-serif; text-anchor: end" x="96.127379" y="196.013079" transform="rotate(-0 96.127379 196.013079)">-1000</text>
     </g>
    </g>
    <g id="ytick_4">
     <g id="line2d_13">
      <g>
       <use xlink:href="#m13e5f94dc6" x="102.627379" y="161.936915" style="stroke: #000000; stroke-width: 0.6"/>
      </g>
     </g>
     <g id="text_14">
      <text style="font-size: 8px; font-family: 'Arial', 'Helvetica', 'DejaVu Sans', sans-serif; text-anchor: end" x="96.127379" y="164.849025" transform="rotate(-0 96.127379 164.849025)">-500</text>
     </g>
    </g>
    <g id="ytick_5">
     <g id="line2d_14">
      <g>
       <use xlink:href="#m13e5f94dc6" x="102.627379" y="130.772861" style="stroke: #000000; stroke-width: 0.6"/>
      </g>
     </g>
     <g id="text_15">
      <text style="font-size: 8px; font-family: 'Arial', 'Helvetica', 'DejaVu Sans', sans-serif; text-anchor: end" x="96.127379" y="133.684971" transform="rotate(-0 96.127379 133.684971)">0</text>
     </g>
    </g>
    <g id="ytick_6">
     <g id="line2d_15">
      <g>
       <use xlink:href="#m13e5f94dc6" x="102.627379" y="99.608807" style="stroke: #000000; stroke-width: 0.6"/>
      </g>
     </g>
     <g id="text_16">
      <text style="font-size: 8px; font-family: 'Arial', 'Helvetica', 'DejaVu Sans', sans-serif; text-anchor: end" x="96.127379" y="102.520917" transform="rotate(-0 96.127379 102.520917)">500</text>
     </g>
    </g>
    <g id="ytick_7">
     <g id="line2d_16">
      <g>
       <use xlink:href="#m13e5f94dc6" x="102.627379" y="68.444753" style="stroke: #000000; stroke-width: 0.6"/>
      </g>
     </g>
     <g id="text_17">
      <text style="font-size: 8px; font-family: 'Arial', 'Helvetica', 'DejaVu Sans', sans-serif; text-anchor: end" x="96.127379" y="71.356863" transform="rotate(-0 96.127379 71.356863)">1000</text>
     </g>
    </g>
    <g id="ytick_8">
     <g id="line2d_17">
      <g>
       <use xlink:href="#m13e5f94dc6" x="102.627379" y="37.280699" style="stroke: #000000; stroke-width: 0.6"/>
      </g>
     </g>
     <g id="text_18">
      <text style="font-size: 8px; font-family: 'Arial', 'Helvetica', 'DejaVu Sans', sans-serif; text-anchor: end" x="96.127379" y="40.192809" transform="rotate(-0 96.127379 40.192809)">1500</text>
     </g>
    </g>
    <g id="ytick_9">
     <g id="line2d_18">
      <g>
       <use xlink:href="#m13e5f94dc6" x="102.627379" y="6.116645" style="stroke: #000000; stroke-width: 0.6"/>
      </g>
     </g>
     <g id="text_19">
      <text style="font-size: 8px; font-family: 'Arial', 'Helvetica', 'DejaVu Sans', sans-serif; text-anchor: end" x="96.127379" y="9.028755" transform="rotate(-0 96.127379 9.028755)">2000</text>
     </g>
    </g>
    <g id="text_20">
     <text style="font-size: 9px; font-family: 'Arial', 'Helvetica', 'DejaVu Sans', sans-serif; text-anchor: middle" x="69.77441" y="130.772861" transform="rotate(-90 69.77441 130.772861)">North (m)</text>
    </g>
   </g>
   <g id="LineCollection_1">
    <path d="M 230.4 130.772861 
L 292.603452 130.772861 
" clip-path="url(#pc04237d3f4)" style="fill: none; stroke: #b2b2b2; stroke-width: 0.6"/>
    <path d="M 292.603452 130.772861 
L 274.384483 86.788379 
" clip-path="url(#pc04237d3f4)" style="fill: none; stroke: #b2b2b2; stroke-width: 0.6"/>
    <path d="M 274.384483 86.788379 
L 230.4 130.772861 
" clip-path="url(#pc04237d3f4)" style="fill: none; stroke: #b2b2b2; stroke-width: 0.6"/>
    <path d="M 292.603452 130.772861 
L 344.959062 130.772861 
" clip-path="url(#pc04237d3f4)" style="fill: none; stroke: #b2b2b2; stroke-width: 0.6"/>
    <path d="M 344.959062 130.772861 
L 336.238773 86.933006 
" clip-path="url(#pc04237d3f4)" style="fill: none; stroke: #b2b2b2; stroke-width: 0.6"/>
    <path d="M 336.238773 86.933006 
L 292.603452 130.772861 
" clip-path="url(#pc04237d3f4)" style="fill: none; stroke: #b2b2b2; stroke-width: 0.6"/>
    <path d="M 292.603452 130.772861 
L 336.238773 86.933006 
" clip-path="url(#pc04237d3f4)" style="fill: none; stroke: #b2b2b2; stroke-width: 0.6"/>
    <path d="M 336.238773 86.933006 
L 274.384483 86.788379 
" clip-path="url(#pc04237d3f4)" style="fill: none; stroke: #b2b2b2; stroke-width: 0.6"/>
    <path d="M 274.384483 86.788379 
L 292.603452 130.772861 
" clip-path="url(#pc04237d3f4)" style="fill: none; stroke: #b2b2b2; stroke-width: 0.6"/>
    <path d="M 274.384483 86.788379 
L 336.238773 86.933006 
" clip-path="url(#pc04237d3f4)" style="fill: none; stroke: #b2b2b2; stroke-width: 0.6"/>
    <path d="M 336.238773 86.933006 
L 311.40549 49.767371 
" clip-path="url(#pc04237d3f4)" style="fill: none; stroke: #b2b2b2; stroke-width: 0.6"/>
    <path d="M 311.40549 49.767371 
L 274.384483 86.788379 
" clip-path="url(#pc04237d3f4)" style="fill: none; stroke: #b2b2b2; stroke-width: 0.6"/>
    <path d="M 230.4 130.772861 
L 274.384483 86.788379 
" clip-path="url(#pc04237d3f4)" style="fill: none; stroke: #b2b2b2; stroke-width: 0.6"/>
    <path d="M 274.384483 86.788379 
L 230.4 68.56941 
" clip-path="url(#pc04237d3f4)" style="fill: none; stroke: #b2b2b2; stroke-width: 0.6"/>
    <path d="M 230.4 68.56941 
L 230.4 130.772861 
" clip-path="url(#pc04237d3f4)" style="fill: none; stroke: #b2b2b2; stroke-width: 0.6"/>
    <path d="M 274.384483 86.788379 
L 311.40549 49.767371 
" clip-path="url(#pc04237d3f4)" style="fill: none; stroke: #b2b2b2; stroke-width: 0.6"/>
    <path d="M 311.40549 49.767371 
L 274.239855 24.934088 
" clip-path="url(#pc04237d3f4)" style="fill: none; stroke: #b2b2b2; stroke-width: 0.6"/>
    <path d="M 274.239855 24.934088 
L 274.384483 86.788379 
" clip-path="url(#pc04237d3f4)" style="fill: none; stroke: #b2b2b2; stroke-width: 0.6"/>
    <path d="M 274.384483 86.788379 
L 274.239855 24.934088 
" clip-path="url(#pc04237d3f4)" style="fill: none; stroke: #b2b2b2; stroke-width: 0.6"/>
    <path d="M 274.239855 24.934088 
L 230.4 68.56941 
" clip-path="url(#pc04237d3f4)" style="fill: none; stroke: #b2b2b2; stroke-width: 0.6"/>
    <path d="M 230.4 68.56941 
L 274.384483 86.788379 
" clip-path="url(#pc04237d3f4)" style="fill: none; stroke: #b2b2b2; stroke-width: 0.6"/>
    <path d="M 230.4 68.56941 
L 274.239855 24.934088 
" clip-path="url(#pc04237d3f4)" style="fill: none; stroke: #b2b2b2; stroke-width: 0.6"/>
    <path d="M 274.239855 24.934088 
L 230.4 16.213799 
" clip-path="url(#pc04237d3f4)" style="fill: none; stroke: #b2b2b2; stroke-width: 0.6"/>
    <path d="M 230.4 16.213799 
L 230.4 68.56941 
" clip-path="url(#pc04237d3f4)" style="fill: none; stroke: #b2b2b2; stroke-width: 0.6"/>
    <path d="M 230.4 130.772861 
L 230.4 68.56941 
" clip-path="url(#pc04237d3f4)" style="fill: none; stroke: #b2b2b2; stroke-width: 0.6"/>
    <path d="M 230.4 68.56941 
L 186.415517 86.788379 
" clip-path="url(#pc04237d3f4)" style="fill: none; stroke: #b2b2b2; stroke-width: 0.6"/>
    <path d="M 186.415517 86.788379 
L 230.4 130.772861 
" clip-path="url(#pc04237d3f4)" style="fill: none; stroke: #b2b2b2; stroke-width: 0.6"/>
    <path d="M 230.4 68.56941 
L 230.4 16.213799 
" clip-path="url(#pc04237d3f4)" style="fill: none; stroke: #b2b2b2; stroke-width: 0.6"/>
    <path d="M 230.4 16.213799 
L 186.560145 24.934088 
" clip-path="url(#pc04237d3f4)" style="fill: none; stroke: #b2b2b2; stroke-width: 0.6"/>
    <path d="M 186.560145 24.934088 
L 230.4 68.56941 
" clip-path="url(#pc04237d3f4)" style="fill: none; stroke: #b2b2b2; stroke-width: 0.6"/>
    <path d="M 230.4 68.56941 
L 186.560145 24.934088 
" clip-path="url(#pc04237d3f4)" style="fill: none; stroke: #b2b2b2; stroke-width: 0.6"/>
    <path d="M 186.560145 24.934088 
L 186.415517 86.788379 
" clip-path="url(#pc04237d3f4)" style="fill: none; stroke: #b2b2b2; stroke-width: 0.6"/>
    <path d="M 186.415517 86.788379 
L 230.4 68.56941 
" clip-path="url(#pc04237d3f4)" style="fill: none; stroke: #b2b2b2; stroke-width: 0.6"/>
    <path d="M 186.415517 86.788379 
L 186.560145 24.934088 
" clip-path="url(#pc04237d3f4)" style="fill: none; stroke: #b2b2b2; stroke-width: 0.6"/>
    <path d="M 186.560145 24.934088 
L 149.39451 49.767371 
" clip-path="url(#pc04237d3f4)" style="fill: none; stroke: #b2b2b2; stroke-width: 0.6"/>
    <path d="M 149.39451 49.767371 
L 186.415517 86.788379 
" clip-path="url(#pc04237d3f4)" style="fill: none; stroke: #b2b2b2; stroke-width: 0.6"/>
    <path d="M 230.4 130.772861 
L 186.415517 86.788379 
" clip-path="url(#pc04237d3f4)" style="fill: none; stroke: #b2b2b2; stroke-width: 0.6"/>
    <path d="M 186.415517 86.788379 
L 168.196548 130.772861 
" clip-path="url(#pc04237d3f4)" style="fill: none; stroke: #b2b2b2; stroke-width: 0.6"/>
    <path d="M 168.196548 130.772861 
L 230.4 130.772861 
" clip-path="url(#pc04237d3f4)" style="fill: none; stroke: #b2b2b2; stroke-width: 0.6"/>
    <path d="M 186.415517 86.788379 
L 149.39451 49.767371 
" clip-path="url(#pc04237d3f4)" style="fill: none; stroke: #b2b2b2; stroke-width: 0.6"/>
    <path d="M 149.39451 49.767371 
L 124.561227 86.933006 
" clip-path="url(#pc04237d3f4)" style="fill: none; stroke: #b2b2b2; stroke-width: 0.6"/>
    <path d="M 124.561227 86.933006 
L 186.415517 86.788379 
" clip-path="url(#pc04237d3f4)" style="fill: none; stroke: #b2b2b2; stroke-width: 0.6"/>
    <path d="M 186.415517 86.788379 
L 124.561227 86.933006 
" clip-path="url(#pc04237d3f4)" style="fill: none; stroke: #b2b2b2; stroke-width: 0.6"/>
    <path d="M 124.561227 86.933006 
L 168.196548 130.772861 
" clip-path="url(#pc04237d3f4)" style="fill: none; stroke: #b2b2b2; stroke-width: 0.6"/>
    <path d="M 168.196548 130.772861 
L 186.415517 86.788379 
" clip-path="url(#pc04237d3f4)" style="fill: none; stroke: #b2b2b2; stroke-width: 0.6"/>
    <path d="M 168.196548 130.772861 
L 124.561227 86.933006 
" clip-path="url(#pc04237d3f4)" style="fill: none; stroke: #b2b2b2; stroke-width: 0.6"/>
    <path d="M 124.561227 86.933006 
L 115.840938 130.772861 
" clip-path="url(#pc04237d3f4)" style="fill: none; stroke: #b2b2b2; stroke-width: 0.6"/>
    <path d="M 115.840938 130.772861 
L 168.196548 130.772861 
" clip-path="url(#pc04237d3f4)" style="fill: none; stroke: #b2b2b2; stroke-width: 0.6"/>
    <path d="M 230.4 130.772861 
L 168.196548 130.772861 
" clip-path="url(#pc04237d3f4)" style="fill: none; stroke: #b2b2b2; stroke-width: 0.6"/>
    <path d="M 168.196548 130.772861 
L 186.415517 174.757344 
" clip-path="url(#pc04237d3f4)" style="fill: none; stroke: #b2b2b2; stroke-width: 0.6"/>
    <path d="M 186.415517 174.757344 
L 230.4 130.772861 
" clip-path="url(#pc04237d3f4)" style="fill: none; stroke: #b2b2b2; stroke-width: 0.6"/>
    <path d="M 168.196548 130.772861 
L 115.840938 130.772861 
" clip-path="url(#pc04237d3f4)" style="fill: none; stroke: #b2b2b2; stroke-width: 0.6"/>
    <path d="M 115.840938 130.772861 
L 124.561227 174.612717 
" clip-path="url(#pc04237d3f4)" style="fill: none; stroke: #b2b2b2; stroke-width: 0.6"/>
    <path d="M 124.561227 174.612717 
L 168.196548 130.772861 
" clip-path="url(#pc04237d3f4)" style="fill: none; stroke: #b2b2b2; stroke-width: 0.6"/>
    <path d="M 168.196548 130.772861 
L 124.561227 174.612717 
" clip-path="url(#pc04237d3f4)" style="fill: none; stroke: #b2b2b2; stroke-width: 0.6"/>
    <path d="M 124.561227 174.612717 
L 186.415517 174.757344 
" clip-path="url(#pc04237d3f4)" style="fill: none; stroke: #b2b2b2; stroke-width: 0.6"/>
    <path d="M 186.415517 174.757344 
L 168.196548 130.772861 
" clip-path="url(#pc04237d3f4)" style="fill: none; stroke: #b2b2b2; stroke-width: 0.6"/>
    <path d="M 186.415517 174.757344 
L 124.561227 174.612717 
" clip-path="url(#pc04237d3f4)" style="fill: none; stroke: #b2b2b2; stroke-width: 0.6"/>
    <path d="M 124.561227 174.612717 
L 149.39451 211.778351 
" clip-path="url(#pc04237d3f4)" style="fill: none; stroke: #b2b2b2; stroke-width: 0.6"/>
    <path d="M 149.39451 211.778351 
L 186.415517 174.757344 
" clip-path="url(#pc04237d3f4)" style="fill: none; stroke: #b2b2b2; stroke-width: 0.6"/>
    <path d="M 230.4 130.772861 
L 186.415517 174.757344 
" clip-path="url(#pc04237d3f4)" style="fill: none; stroke: #b2b2b2; stroke-width: 0.6"/>
    <path d="M 186.415517 174.757344 
L 230.4 192.976313 
" clip-path="url(#pc04237d3f4)" style="fill: none; stroke: #b2b2b2; stroke-width: 0.6"/>
    <path d="M 230.4 192.976313 
L 230.4 130.772861 
" clip-path="url(#pc04237d3f4)" style="fill: none; stroke: #b2b2b2; stroke-width: 0.6"/>
    <path d="M 186.415517 174.757344 
L 149.39451 211.778351 
" clip-path="url(#pc04237d3f4)" style="fill: none; stroke: #b2b2b2; stroke-width: 0.6"/>
    <path d="M 149.39451 211.778351 
L 186.560145 236.611634 
" clip-path="url(#pc04237d3f4)" style="fill: none; stroke: #b2b2b2; stroke-width: 0.6"/>
    <path d="M 186.560145 236.611634 
L 186.415517 174.757344 
" clip-path="url(#pc04237d3f4)" style="fill: none; stroke: #b2b2b2; stroke-width: 0.6"/>
    <path d="M 186.415517 174.757344 
L 186.560145 236.611634 
" clip-path="url(#pc04237d3f4)" style="fill: none; stroke: #b2b2b2; stroke-width: 0.6"/>
    <path d="M 186.560145 236.611634 
L 230.4 192.976313 
" clip-path="url(#pc04237d3f4)" style="fill: none; stroke: #b2b2b2; stroke-width: 0.6"/>
    <path d="M 230.4 192.976313 
L 186.415517 174.757344 
" clip-path="url(#pc04237d3f4)" style="fill: none; stroke: #b2b2b2; stroke-width: 0.6"/>
    <path d="M 230.4 192.976313 
L 186.560145 236.611634 
" clip-path="url(#pc04237d3f4)" style="fill: none; stroke: #b2b2b2; stroke-width: 0.6"/>
    <path d="M 186.560145 236.611634 
L 230.4 245.331924 
" clip-path="url(#pc04237d3f4)" style="fill: none; stroke: #b2b2b2; stroke-width: 0.6"/>
    <path d="M 230.4 245.331924 
L 230.4 192.976313 
" clip-path="url(#pc04237d3f4)" style="fill: none; stroke: #b2b2b2; stroke-width: 0.6"/>
    <path d="M 230.4 130.772861 
L 230.4 192.976313 
" clip-path="url(#pc04237d3f4)" style="fill: none; stroke: #b2b2b2; stroke-width: 0.6"/>
    <path d="M 230.4 192.976313 
L 274.384483 174.757344 
" clip-path="url(#pc04237d3f4)" style="fill: none; stroke: #b2b2b2; stroke-width: 0.6"/>
    <path d="M 274.384483 174.757344 
L 230.4 130.772861 
" clip-path="url(#pc04237d3f4)" style="fill: none; stroke: #b2b2b2; stroke-width: 0.6"/>
    <path d="M 230.4 192.976313 
L 230.4 245.331924 
" clip-path="url(#pc04237d3f4)" style="fill: none; stroke: #b2b2b2; stroke-width: 0.6"/>
    <path d="M 230.4 245.331924 
L 274.239855 236.611634 
" clip-path="url(#pc04237d3f4)" style="fill: none; stroke: #b2b2b2; stroke-width: 0.6"/>
    <path d="M 274.239855 236.611634 
L 230.4 192.976313 
" clip-path="url(#pc04237d3f4)" style="fill: none; stroke: #b2b2b2; stroke-width: 0.6"/>
    <path d="M 230.4 192.976313 
L 274.239855 236.611634 
" clip-path="url(#pc04237d3f4)" style="fill: none; stroke: #b2b2b2; stroke-width: 0.6"/>
    <path d="M 274.239855 236.611634 
L 274.384483 174.757344 
" clip-path="url(#pc04237d3f4)" style="fill: none; stroke: #b2b2b2; stroke-width: 0.6"/>
    <path d="M 274.384483 174.757344 
L 230.4 192.976313 
" clip-path="url(#pc04237d3f4)" style="fill: none; stroke: #b2b2b2; stroke-width: 0.6"/>
    <path d="M 274.384483 174.757344 
L 274.239855 236.611634 
" clip-path="url(#pc04237d3f4)" style="fill: none; stroke: #b2b2b2; stroke-width: 0.6"/>
    <path d="M 274.239855 236.611634 
L 311.40549 211.778351 
" clip-path="url(#pc04237d3f4)" style="fill: none; stroke: #b2b2b2; stroke-width: 0.6"/>
    <path d="M 311.40549 211.778351 
L 274.384483 174.757344 
" clip-path="url(#pc04237d3f4)" style="fill: none; stroke: #b2b2b2; stroke-width: 0.6"/>
    <path d="M 230.4 130.772861 
L 274.384483 174.757344 
" clip-path="url(#pc04237d3f4)" style="fill: none; stroke: #b2b2b2; stroke-width: 0.6"/>
    <path d="M 274.384483 174.757344 
L 292.603452 130.772861 
" clip-path="url(#pc04237d3f4)" style="fill: none; stroke: #b2b2b2; stroke-width: 0.6"/>
    <path d="M 292.603452 130.772861 
L 230.4 130.772861 
" clip-path="url(#pc04237d3f4)" style="fill: none; stroke: #b2b2b2; stroke-width: 0.6"/>
    <path d="M 274.384483 174.757344 
L 311.40549 211.778351 
" clip-path="url(#pc04237d3f4)" style="fill: none; stroke: #b2b2b2; stroke-width: 0.6"/>
    <path d="M 311.40549 211.778351 
L 336.238773 174.612717 
" clip-path="url(#pc04237d3f4)" style="fill: none; stroke: #b2b2b2; stroke-width: 0.6"/>
    <path d="M 336.238773 174.612717 
L 274.384483 174.757344 
" clip-path="url(#pc04237d3f4)" style="fill: none; stroke: #b2b2b2; stroke-width: 0.6"/>
    <path d="M 274.384483 174.757344 
L 336.238773 174.612717 
" clip-path="url(#pc04237d3f4)" style="fill: none; stroke: #b2b2b2; stroke-width: 0.6"/>
    <path d="M 336.238773 174.612717 
L 292.603452 130.772861 
" clip-path="url(#pc04237d3f4)" style="fill: none; stroke: #b2b2b2; stroke-width: 0.6"/>
    <path d="M 292.603452 130.772861 
L 274.384483 174.757344 
" clip-path="url(#pc04237d3f4)" style="fill: none; stroke: #b2b2b2; stroke-width: 0.6"/>
    <path d="M 292.603452 130.772861 
L 336.238773 174.612717 
" clip-path="url(#pc04237d3f4)" style="fill: none; stroke: #b2b2b2; stroke-width: 0.6"/>
    <path d="M 336.238773 174.612717 
L 344.959062 130.772861 
" clip-path="url(#pc04237d3f4)" style="fill: none; stroke: #b2b2b2; stroke-width: 0.6"/>
    <path d="M 344.959062 130.772861 
L 292.603452 130.772861 
" clip-path="url(#pc04237d3f4)" style="fill: none; stroke: #b2b2b2; stroke-width: 0.6"/>
   </g>
   <g id="line2d_19">
    <path d="M 342.590594 130.772861 
L 342.436841 124.901259 
L 341.976003 119.045751 
L 341.209342 113.222386 
L 340.138961 107.447125 
L 338.767793 101.735799 
L 337.099596 96.104061 
L 335.138943 90.567348 
L 332.891208 85.140836 
L 330.362552 79.839397 
L 327.559905 74.677564 
L 324.490949 69.669484 
L 321.164097 64.828885 
L 317.588467 60.169033 
L 313.77386 55.702701 
L 309.73073 51.442131 
L 305.47016 47.399002 
L 301.003829 43.584394 
L 296.343977 40.008764 
L 291.503377 36.681912 
L 286.495297 33.612957 
L 281.333464 30.81031 
L 276.032026 28.281653 
L 270.605513 26.033918 
L 265.0688 24.073266 
L 259.437062 22.405069 
L 253.725736 21.033901 
L 247.950476 19.963519 
L 242.12711 19.196859 
L 236.271602 18.73602 
L 230.4 18.582267 
L 224.528398 18.73602 
L 218.67289 19.196859 
L 212.849524 19.963519 
L 207.074264 21.033901 
L 201.362938 22.405069 
L 195.7312 24.073266 
L 190.194487 26.033918 
L 184.767974 28.281653 
L 179.466536 30.81031 
L 174.304703 33.612957 
L 169.296623 36.681912 
L 164.456023 40.008764 
L 159.796171 43.584394 
L 155.32984 47.399002 
L 151.06927 51.442131 
L 147.02614 55.702701 
L 143.211533 60.169033 
L 139.635903 64.828885 
L 136.309051 69.669484 
L 133.240095 74.677564 
L 130.437448 79.839397 
L 127.908792 85.140836 
L 125.661057 90.567348 
L 123.700404 96.104061 
L 122.032207 101.735799 
L 120.661039 107.447125 
L 119.590658 113.222386 
L 118.823997 119.045751 
L 118.363159 124.901259 
L 118.209406 130.772861 
L 118.363159 136.644463 
L 118.823997 142.499972 
L 119.590658 148.323337 
L 120.661039 154.098597 
L 122.032207 159.809924 
L 123.700404 165.441662 
L 125.661057 170.978375 
L 127.908792 176.404887 
L 130.437448 181.706325 
L 133.240095 186.868158 
L 136.309051 191.876238 
L 139.635903 196.716838 
L 143.211533 201.37669 
L 147.02614 205.843022 
L 151.06927 210.103591 
L 155.32984 214.146721 
L 159.796171 217.961329 
L 164.456023 221.536959 
L 169.296623 224.863811 
L 174.304703 227.932766 
L 179.466536 230.735413 
L 184.767974 233.264069 
L 190.194487 235.511804 
L 195.7312 237.472457 
L 201.362938 239.140654 
L 207.074264 240.511822 
L 212.849524 241.582203 
L 218.67289 242.348864 
L 224.528398 242.809702 
L 230.4 242.963456 
L 236.271602 242.809702 
L 242.12711 242.348864 
L 247.950476 241.582203 
L 253.725736 240.511822 
L 259.437062 239.140654 
L 265.0688 237.472457 
L 270.605513 235.511804 
L 276.032026 233.264069 
L 281.333464 230.735413 
L 286.495297 227.932766 
L 291.503377 224.863811 
L 296.343977 221.536959 
L 301.003829 217.961329 
L 305.47016 214.146721 
L 309.73073 210.103591 
L 313.77386 205.843022 
L 317.588467 201.37669 
L 321.164097 196.716838 
L 324.490949 191.876238 
L 327.559905 186.868158 
L 330.362552 181.706325 
L 332.891208 176.404887 
L 335.138943 170.978375 
L 337.099596 165.441662 
L 338.767793 159.809924 
L 340.138961 154.098597 
L 341.209342 148.323337 
L 341.976003 142.499972 
L 342.436841 136.644463 
L 342.590594 130.772861 
L 342.590594 130.772861 
" clip-path="url(#pc04237d3f4)" style="fill: none; stroke-dasharray: 2.59,1.12; stroke-dashoffset: 0; stroke: #8c8c8c; stroke-width: 0.7"/>
   </g>
   <g id="patch_3">
    <path d="M 102.627379 258.545483 
L 102.627379 3.00024 
" style="fill: none; stroke: #000000; stroke-width: 0.7; stroke-linejoin: miter; stroke-linecap: square"/>
   </g>
   <g id="patch_4">
    <path d="M 102.627379 258.545483 
L 358.172621 258.545483 
" style="fill: none; stroke: #000000; stroke-width: 0.7; stroke-linejoin: miter; stroke-linecap: square"/>
   </g>
  </g>
 </g>
 <defs>
  <clipPath id="pc04237d3f4">
   <rect x="102.627379" y="3.00024" width="255.545243" height="255.545243"/>
  </clipPath>
 </defs>
</svg>
