<?xml version="1.0" encoding="utf-8" standalone="no"?>
<!DOCTYPE svg PUBLIC "-//W3C//DTD SVG 1.1//EN"
  "http://www.w3.org/Graphics/SVG/1.1/DTD/svg11.dtd">
<svg xmlns:xlink="http://www.w3.org/1999/xlink" width="576pt" height="316.8pt" viewBox="0 0 576 316.8" xmlns="http://www.w3.org/2000/svg" version="1.1">
 <metadata>
  <rdf:RDF xmlns:dc="http://purl.org/dc/elements/1.1/" xmlns:cc="http://creativecommons.org/ns#" xmlns:rdf="http://www.w3.org/1999/02/22-rdf-syntax-ns#">
   <cc:Work>
    <dc:type rdf:resource="http://purl.org/dc/dcmitype/StillImage"/>
    <dc:date>2026-09-12T14:59:33.245240</dc:date>
    <dc:format>image/svg+xml</dc:format>
    <dc:creator>
     <cc:Agent>
      <dc:title>Matplotlib v3.10.7, https://matplotlib.org/</dc:title>
     </cc:Agent>
    </dc:creator>
   </cc:Work>
  </rdf:RDF>
 </metadata>
 <defs>
  <style type="text/css">*{stroke-linejoin: round; stroke-linecap: butt}</style>
 </defs>
 <g id="figure_1">
  <g id="patch_1">
   <path d="M 0 316.8 
L 576 316.8 
L 576 0 
L 0 0 
z
" style="fill: #ffffff"/>
  </g>
  <g id="axes_1">
   <g id="patch_2">
    <path d="M 46.08 262.204138 
L 269.528276 262.204138 
L 269.528276 38.755862 
L 46.08 38.755862 
z
" style="fill: #ffffff"/>
   </g>
   <g id="patch_3">
    <path d="M 157.804138 253.609973 
C 185.154527 253.609973 211.388396 242.743549 230.728042 223.403904 
C 250.067687 204.064258 260.934111 177.830389 260.934111 150.48 
C 260.934111 123.129611 250.067687 96.895742 230.728042 77.556096 
C 211.388396 58.216451 185.154527 47.350027 157.804138 47.350027 
C 130.453749 47.350027 104.21988 58.216451 84.880234 77.556096 
C 65.540589 96.895742 54.674164 123.129611 54.674164 150.48 
C 54.674164 177.830389 65.540589 204.064258 84.880234 223.403904 
C 104.21988 242.743549 130.453749 253.609973 157.804138 253.609973 
L 157.804138 253.609973 
z
" clip-path="url(#p6f555b3c41)" style="fill: none; stroke: #999999; stroke-width: 0.7; stroke-linejoin: miter"/>
   </g>
   <g id="PathCollection_1">
    <defs>
     <path id="m340ef22c33" d="M -2.236068 2.236068 
L 2.236068 -2.236068 
M -2.236068 -2.236068 
L 2.236068 2.236068 
" style="stroke: #000000; stroke-width: 1.1"/>
    </defs>
    <g clip-path="url(#p6f555b3c41)">
     <use xlink:href="#m340ef22c33" x="233.923244" y="99.542992" style="stroke: #000000; stroke-width: 1.1"/>
     <use xlink:href="#m340ef22c33" x="71.810579" y="111.826007" style="stroke: #000000; stroke-width: 1.1"/>
     <use xlink:href="#m340ef22c33" x="153.347236" y="148.887654" style="stroke: #000000; stroke-width: 1.1"/>
     <use xlink:href="#m340ef22c33" x="204.242498" y="167.109672" style="stroke: #000000; stroke-width: 1.1"/>
     <use xlink:href="#m340ef22c33" x="175.611517" y="147.608428" style="stroke: #000000; stroke-width: 1.1"/>
     <use xlink:href="#m340ef22c33" x="84.433285" y="82.617547" style="stroke: #000000; stroke-width: 1.1"/>
     <use xlink:href="#m340ef22c33" x="223.695844" y="138.321592" style="stroke: #000000; stroke-width: 1.1"/>
     <use xlink:href="#m340ef22c33" x="89.583486" y="148.684532" style="stroke: #000000; stroke-width: 1.1"/>
     <use xlink:href="#m340ef22c33" x="167.46187" y="101.877772" style="stroke: #000000; stroke-width: 1.1"/>
     <use xlink:href="#m340ef22c33" x="212.815111" y="143.006738" style="stroke: #000000; stroke-width: 1.1"/>
     <use xlink:href="#m340ef22c33" x="109.626251" y="210.456857" style="stroke: #000000; stroke-width: 1.1"/>
    </g>
   </g>
   <g id="matplotlib.axis_1">
    <g id="xtick_1">
     <g id="line2d_1">
      <defs>
       <path id="m99fa218185" d="M 0 0 
L 0 3 
" style="stroke: #000000; stroke-width: 0.6"/>
      </defs>
      <g>
       <use xlink:href="#m99fa218185" x="71.862493" y="262.204138" style="stroke: #000000; stroke-width: 0.6"/>
      </g>
     </g>
     <g id="text_1">
      <text style="font-size: 8px; font-family: 'Arial', 'Helvetica', 'DejaVu Sans', sans-serif; text-anchor: middle" x="71.862493" y="274.430388" transform="rotate(-0 71.862493 274.430388)">-1500</text>
     </g>
    </g>
    <g id="xtick_2">
     <g id="line2d_2">
      <g>
       <use xlink:href="#m99fa218185" x="157.804138" y="262.204138" style="stroke: #000000; stroke-width: 0.6"/>
      </g>
     </g>
     <g id="text_2">
      <text style="font-size: 8px; font-family: 'Arial', 'Helvetica', 'DejaVu Sans', sans-serif; text-anchor: middle" x="157.804138" y="274.430388" transform="rotate(-0 157.804138 274.430388)">0</text>
     </g>
    </g>
    <g id="xtick_3">
     <g id="line2d_3">
      <g>
       <use xlink:href="#m99fa218185" x="243.745782" y="262.204138" style="stroke: #000000; stroke-width: 0.6"/>
      </g>
     </g>
     <g id="text_3">
      <text style="font-size: 8px; font-family: 'Arial', 'Helvetica', 'DejaVu Sans', sans-serif; text-anchor: middle" x="243.745782" y="274.430388" transform="rotate(-0 243.745782 274.430388)">1500</text>
     </g>
    </g>
    <g id="text_4">
     <text style="font-size: 10px; font-family: 'Arial', 'Helvetica', 'DejaVu Sans', sans-serif; text-anchor: middle" x="157.804138" y="287.300075" transform="rotate(-0 157.804138 287.300075)">East (m)</text>
    </g>
   </g>
   <g id="matplotlib.axis_2">
    <g id="ytick_1">
     <g id="line2d_4">
      <defs>
       <path id="m77abe49b5a" d="M 0 0 
L -3 0 
" style="stroke: #000000; stroke-width: 0.6"/>
      </defs>
      <g>
       <use xlink:href="#m77abe49b5a" x="46.08" y="236.421645" style="stroke: #000000; stroke-width: 0.6"/>
      </g>
     </g>
     <g id="text_5">
      <text style="font-size: 8px; font-family: 'Arial', 'Helvetica', 'DejaVu Sans', sans-serif; text-anchor: end" x="39.58" y="239.28477" transform="rotate(-0 39.58 239.28477)">-1500</text>
     </g>
    </g>
    <g id="ytick_2">
     <g id="line2d_5">
      <g>
       <use xlink:href="#m77abe49b5a" x="46.08" y="150.48" style="stroke: #000000; stroke-width: 0.6"/>
      </g>
     </g>
     <g id="text_6">
      <text style="font-size: 8px; font-family: 'Arial', 'Helvetica', 'DejaVu Sans', sans-serif; text-anchor: end" x="39.58" y="153.343125" transform="rotate(-0 39.58 153.343125)">0</text>
     </g>
    </g>
    <g id="ytick_3">
     <g id="line2d_6">
      <g>
       <use xlink:href="#m77abe49b5a" x="46.08" y="64.538355" style="stroke: #000000; stroke-width: 0.6"/>
      </g>
     </g>
     <g id="text_7">
      <text style="font-size: 8px; font-family: 'Arial', 'Helvetica', 'DejaVu Sans', sans-serif; text-anchor: end" x="39.58" y="67.40148" transform="rotate(-0 39.58 67.40148)">1500</text>
     </g>
    </g>
    <g id="text_8">
     <text style="font-size: 10px; font-family: 'Arial', 'Helvetica', 'DejaVu Sans', sans-serif; text-anchor: middle" x="13.016562" y="150.48" transform="rotate(-90 13.016562 150.48)">North (m)</text>
    </g>
   </g>
   <g id="line2d_7">
    <path d="M 157.804138 150.48 
L 157.804138 150.48 
L 157.804138 150.48 
L 157.804138 150.48 
L 157.804138 150.48 
L 157.804138 150.48 
L 157.804138 150.48 
L 157.804138 150.48 
L 157.804138 150.48 
L 157.804138 150.48 
L 157.804138 150.48 
L 157.804138 150.48 
L 157.804138 150.48 
L 157.804138 150.48 
L 157.804138 150.48 
L 157.804138 150.48 
L 157.804138 150.48 
L 157.804138 150.48 
L 157.804138 150.48 
L 157.804138 150.48 
L 157.804138 150.48 
L 175.450941 152.059206 
L 175.450941 152.059206 
L 175.450941 152.059206 
L 175.450941 152.059206 
L 200.832066 167.85168 
L 200.832066 167.85168 
L 204.226923 167.175605 
L 226.557454 150.48 
L 226.557454 150.48 
L 226.557454 150.48 
L 226.557454 150.48 
L 226.557454 150.48 
L 226.557454 150.48 
L 226.557454 150.48 
L 226.557454 150.48 
L 226.557454 150.48 
L 226.557454 150.48 
L 226.557454 150.48 
L 226.557454 150.48 
L 226.557454 150.48 
L 226.557454 150.48 
L 226.557454 150.48 
L 226.557454 150.48 
L 212.613132 143.062096 
L 212.613132 143.062096 
L 212.613132 143.062096 
L 212.613132 143.062096 
L 223.910529 138.329008 
L 223.910529 138.329008 
L 237.32084 94.18917 
L 232.960178 98.312334 
L 232.960178 98.312334 
L 233.867283 99.50937 
L 192.180796 90.937882 
L 192.180796 90.937882 
L 192.180796 90.937882 
L 192.180796 90.937882 
L 192.180796 90.937882 
L 192.180796 90.937882 
L 192.180796 90.937882 
L 192.180796 90.937882 
L 192.180796 90.937882 
L 192.180796 90.937882 
L 192.180796 90.937882 
L 192.180796 90.937882 
L 192.180796 90.937882 
L 192.180796 90.937882 
L 167.687799 101.55102 
L 167.687799 101.55102 
L 123.42748 90.937882 
L 123.42748 90.937882 
L 123.42748 90.937882 
L 123.42748 90.937882 
L 123.42748 90.937882 
L 123.42748 90.937882 
L 123.42748 90.937882 
L 123.42748 90.937882 
L 123.42748 90.937882 
L 123.42748 90.937882 
L 123.42748 90.937882 
L 123.42748 90.937882 
L 123.42748 90.937882 
L 107.4717 83.236151 
L 107.4717 83.236151 
L 84.910886 81.590869 
L 84.910886 81.590869 
L 84.265994 82.952313 
L 70.9583 110.900312 
L 71.915532 111.941317 
L 89.050822 150.48 
L 89.050822 150.48 
L 89.050822 150.48 
L 89.050822 150.48 
L 89.050822 150.48 
L 89.050822 150.48 
L 89.050822 150.48 
L 89.050822 150.48 
L 89.050822 150.48 
L 89.050822 150.48 
L 89.050822 150.48 
L 98.156361 135.281555 
L 89.869449 147.849569 
L 153.550581 148.950795 
L 175.614624 147.496949 
L 192.180796 210.022118 
L 192.180796 210.022118 
L 192.180796 210.022118 
L 192.180796 210.022118 
L 192.180796 210.022118 
L 192.180796 210.022118 
L 192.180796 210.022118 
L 192.180796 210.022118 
L 192.180796 210.022118 
L 192.180796 210.022118 
L 123.42748 210.022118 
L 123.42748 210.022118 
L 123.42748 210.022118 
L 123.42748 210.022118 
L 123.42748 210.022118 
L 123.42748 210.022118 
L 123.42748 210.022118 
L 123.42748 210.022118 
L 123.42748 210.022118 
L 123.42748 210.022118 
L 106.415912 214.972886 
L 109.649742 210.554502 
" clip-path="url(#p6f555b3c41)" style="fill: none; stroke-dasharray: 3.33,1.44; stroke-dashoffset: 0; stroke: #d55e00; stroke-width: 0.9"/>
   </g>
   <g id="patch_4">
    <path d="M 46.08 262.204138 
L 46.08 38.755862 
" style="fill: none; stroke: #000000; stroke-width: 0.7; stroke-linejoin: miter; stroke-linecap: square"/>
   </g>
   <g id="patch_5">
    <path d="M 46.08 262.204138 
L 269.528276 262.204138 
" style="fill: none; stroke: #000000; stroke-width: 0.7; stroke-linejoin: miter; stroke-linecap: square"/>
   </g>
   <g id="text_9">
    <text style="font-size: 10px; font-family: 'Arial', 'Helvetica', 'DejaVu Sans', sans-serif; text-anchor: start" x="46.08" y="34.755862" transform="rotate(-0 46.08 34.755862)">Breakthrough: 11.64 km</text>
   </g>
  </g>
  <g id="axes_2">
   <g id="patch_6">
    <path d="M 341.031724 262.204138 
L 564.48 262.204138 
L 564.48 38.755862 
L 341.031724 38.755862 
z
" style="fill: #ffffff"/>
   </g>
   <g id="patch_7">
    <path d="M 452.755862 253.609973 
C 480.106251 253.609973 506.34012 242.743549 525.679766 223.403904 
C 545.019411 204.064258 555.885836 177.830389 555.885836 150.48 
C 555.885836 123.129611 545.019411 96.895742 525.679766 77.556096 
C 506.34012 58.216451 480.106251 47.350027 452.755862 47.350027 
C 425.405473 47.350027 399.171604 58.216451 379.831958 77.556096 
C 360.492313 96.895742 349.625889 123.129611 349.625889 150.48 
C 349.625889 177.830389 360.492313 204.064258 379.831958 223.403904 
C 399.171604 242.743549 425.405473 253.609973 452.755862 253.609973 
L 452.755862 253.609973 
z
" clip-path="url(#pc58e6924b6)" style="fill: none; stroke: #999999; stroke-width: 0.7; stroke-linejoin: miter"/>
   </g>
   <g id="PathCollection_2">
    <g clip-path="url(#pc58e6924b6)">
     <use xlink:href="#m340ef22c33" x="528.874968" y="99.542992" style="stroke: #000000; stroke-width: 1.1"/>
     <use xlink:href="#m340ef22c33" x="366.762303" y="111.826007" style="stroke: #000000; stroke-width: 1.1"/>
     <use xlink:href="#m340ef22c33" x="448.29896" y="148.887654" style="stroke: #000000; stroke-width: 1.1"/>
     <use xlink:href="#m340ef22c33" x="499.194222" y="167.109672" style="stroke: #000000; stroke-width: 1.1"/>
     <use xlink:href="#m340ef22c33" x="470.563241" y="147.608428" style="stroke: #000000; stroke-width: 1.1"/>
     <use xlink:href="#m340ef22c33" x="379.385009" y="82.617547" style="stroke: #000000; stroke-width: 1.1"/>
     <use xlink:href="#m340ef22c33" x="518.647568" y="138.321592" style="stroke: #000000; stroke-width: 1.1"/>
     <use xlink:href="#m340ef22c33" x="384.53521" y="148.684532" style="stroke: #000000; stroke-width: 1.1"/>
     <use xlink:href="#m340ef22c33" x="462.413594" y="101.877772" style="stroke: #000000; stroke-width: 1.1"/>
     <use xlink:href="#m340ef22c33" x="507.766835" y="143.006738" style="stroke: #000000; stroke-width: 1.1"/>
     <use xlink:href="#m340ef22c33" x="404.577975" y="210.456857" style="stroke: #000000; stroke-width: 1.1"/>
    </g>
   </g>
   <g id="matplotlib.axis_3">
    <g id="xtick_4">
     <g id="line2d_8">
      <g>
       <use xlink:href="#m99fa218185" x="366.814218" y="262.204138" style="stroke: #000000; stroke-width: 0.6"/>
      </g>
     </g>
     <g id="text_10">
      <text style="font-size: 8px; font-family: 'Arial', 'Helvetica', 'DejaVu Sans', sans-serif; text-anchor: middle" x="366.814218" y="274.430388" transform="rotate(-0 366.814218 274.430388)">-1500</text>
     </g>
    </g>
    <g id="xtick_5">
     <g id="line2d_9">
      <g>
       <use xlink:href="#m99fa218185" x="452.755862" y="262.204138" style="stroke: #000000; stroke-width: 0.6"/>
      </g>
     </g>
     <g id="text_11">
      <text style="font-size: 8px; font-family: 'Arial', 'Helvetica', 'DejaVu Sans', sans-serif; text-anchor: middle" x="452.755862" y="274.430388" transform="rotate(-0 452.755862 274.430388)">0</text>
     </g>
    </g>
    <g id="xtick_6">
     <g id="line2d_10">
      <g>
       <use xlink:href="#m99fa218185" x="538.697507" y="262.204138" style="stroke: #000000; stroke-width: 0.6"/>
      </g>
     </g>
     <g id="text_12">
      <text style="font-size: 8px; font-family: 'Arial', 'Helvetica', 'DejaVu Sans', sans-serif; text-anchor: middle" x="538.697507" y="274.430388" transform="rotate(-0 538.697507 274.430388)">1500</text>
     </g>
    </g>
    <g id="text_13">
     <text style="font-size: 10px; font-family: 'Arial', 'Helvetica', 'DejaVu Sans', sans-serif; text-anchor: middle" x="452.755862" y="287.300075" transform="rotate(-0 452.755862 287.300075)">East (m)</text>
    </g>
   </g>
   <g id="matplotlib.axis_4">
    <g id="ytick_4">
     <g id="line2d_11">
      <g>
       <use xlink:href="#m77abe49b5a" x="341.031724" y="236.421645" style="stroke: #000000; stroke-width: 0.6"/>
      </g>
     </g>
     <g id="text_14">
      <text style="font-size: 8px; font-family: 'Arial', 'Helvetica', 'DejaVu Sans', sans-serif; text-anchor: end" x="334.531724" y="239.28477" transform="rotate(-0 334.531724 239.28477)">-1500</text>
     </g>
    </g>
    <g id="ytick_5">
     <g id="line2d_12">
      <g>
       <use xlink:href="#m77abe49b5a" x="341.031724" y="150.48" style="stroke: #000000; stroke-width: 0.6"/>
      </g>
     </g>
     <g id="text_15">
      <text style="font-size: 8px; font-family: 'Arial', 'Helvetica', 'DejaVu Sans', sans-serif; text-anchor: end" x="334.531724" y="153.343125" transform="rotate(-0 334.531724 153.343125)">0</text>
     </g>
    </g>
    <g id="ytick_6">
     <g id="line2d_13">
      <g>
       <use xlink:href="#m77abe49b5a" x="341.031724" y="64.538355" style="stroke: #000000; stroke-width: 0.6"/>
      </g>
     </g>
     <g id="text_16">
      <text style="font-size: 8px; font-family: 'Arial', 'Helvetica', 'DejaVu Sans', sans-serif; text-anchor: end" x="334.531724" y="67.40148" transform="rotate(-0 334.531724 67.40148)">1500</text>
     </g>
    </g>
    <g id="text_17">
     <text style="font-size: 10px; font-family: 'Arial', 'Helvetica', 'DejaVu Sans', sans-serif; text-anchor: middle" x="307.968287" y="150.48" transform="rotate(-90 307.968287 150.48)">North (m)</text>
    </g>
   </g>
   <g id="line2d_14">
    <path d="M 452.755862 150.48 
L 452.755862 150.48 
L 452.755862 150.48 
L 452.755862 150.48 
L 452.755862 150.48 
L 452.755862 150.48 
L 452.755862 150.48 
L 452.755862 150.48 
L 452.755862 150.48 
L 452.755862 150.48 
L 452.755862 150.48 
L 452.755862 150.48 
L 452.755862 150.48 
L 452.755862 150.48 
L 452.755862 150.48 
L 452.755862 150.48 
L 452.755862 150.48 
L 452.755862 150.48 
L 452.755862 150.48 
L 452.755862 150.48 
L 452.755862 150.48 
L 451.272973 144.945783 
L 451.272973 144.945783 
L 451.272973 144.945783 
L 451.272973 144.945783 
L 451.272973 144.945783 
L 448.251527 148.880058 
L 448.251527 148.880058 
L 469.642682 147.689108 
L 469.642682 147.689108 
L 509.87856 164.629023 
L 509.87856 164.629023 
L 500.148026 167.002343 
L 515.779735 150.48 
L 515.779735 150.48 
L 515.779735 150.48 
L 515.779735 150.48 
L 515.779735 150.48 
L 515.779735 150.48 
L 515.779735 150.48 
L 515.779735 150.48 
L 515.779735 150.48 
L 515.779735 150.48 
L 515.779735 150.48 
L 515.779735 150.48 
L 515.779735 150.48 
L 515.779735 150.48 
L 515.779735 150.48 
L 507.900989 142.440869 
L 507.900989 142.440869 
L 507.900989 142.440869 
L 507.900989 142.440869 
L 518.811256 138.177101 
L 518.811256 138.177101 
L 528.139214 96.42769 
L 528.953149 99.884011 
L 485.986839 94.603654 
L 485.986839 94.603654 
L 485.986839 94.603654 
L 485.986839 94.603654 
L 485.986839 94.603654 
L 485.986839 94.603654 
L 485.986839 94.603654 
L 485.986839 94.603654 
L 485.986839 94.603654 
L 485.986839 94.603654 
L 485.986839 94.603654 
L 485.986839 94.603654 
L 485.986839 94.603654 
L 485.986839 94.603654 
L 462.088746 101.630537 
L 420.450635 93.84886 
L 420.450635 93.84886 
L 420.450635 93.84886 
L 420.450635 93.84886 
L 420.450635 93.84886 
L 420.450635 93.84886 
L 420.450635 93.84886 
L 420.450635 93.84886 
L 420.450635 93.84886 
L 420.450635 93.84886 
L 420.450635 93.84886 
L 420.450635 93.84886 
L 420.450635 93.84886 
L 402.738111 93.436465 
L 402.738111 93.436465 
L 381.148806 81.857114 
L 381.148806 81.857114 
L 379.467589 82.569099 
L 366.651447 111.30083 
L 387.922008 150.201355 
L 387.922008 150.201355 
L 387.922008 150.201355 
L 387.922008 150.201355 
L 387.922008 150.201355 
L 387.922008 150.201355 
L 387.922008 150.201355 
L 387.922008 150.201355 
L 387.922008 150.201355 
L 387.922008 150.201355 
L 387.922008 150.201355 
L 374.119312 139.093289 
L 374.119312 139.093289 
L 383.884475 148.317894 
L 388.365316 167.913132 
L 402.256079 217.40702 
L 404.298179 210.998588 
L 416.613858 210.667851 
L 416.613858 210.667851 
L 416.613858 210.667851 
L 416.613858 210.667851 
L 416.613858 210.667851 
L 416.613858 210.667851 
L 416.613858 210.667851 
L 416.613858 210.667851 
L 416.613858 210.667851 
L 485.917122 208.80672 
L 485.917122 208.80672 
L 485.917122 208.80672 
L 485.917122 208.80672 
L 485.917122 208.80672 
L 485.917122 208.80672 
L 485.917122 208.80672 
L 485.917122 208.80672 
L 485.917122 208.80672 
" clip-path="url(#pc58e6924b6)" style="fill: none; stroke: #0072b2; stroke-width: 0.9; stroke-linecap: square"/>
   </g>
   <g id="patch_8">
    <path d="M 341.031724 262.204138 
L 341.031724 38.755862 
" style="fill: none; stroke: #000000; stroke-width: 0.7; stroke-linejoin: miter; stroke-linecap: square"/>
   </g>
   <g id="patch_9">
    <path d="M 341.031724 262.204138 
L 564.48 262.204138 
" style="fill: none; stroke: #000000; stroke-width: 0.7; stroke-linejoin: miter; stroke-linecap: square"/>
   </g>
   <g id="text_18">
    <text style="font-size: 10px; font-family: 'Arial', 'Helvetica', 'DejaVu Sans', sans-serif; text-anchor: start" x="341.031724" y="34.755862" transform="rotate(-0 341.031724 34.755862)">Ultimate candidate: 10.46 km</text>
   </g>
  </g>
 </g>
 <defs>
  <clipPath id="p6f555b3c41">
   <rect x="46.08" y="38.755862" width="223.448276" height="223.448276"/>
  </clipPath>
  <clipPath id="pc58e6924b6">
   <rect x="341.031724" y="38.755862" width="223.448276" height="223.448276"/>
  </clipPath>
 </defs>
</svg>
