<?xml version="1.0" encoding="utf-8" standalone="no"?>
<!DOCTYPE svg PUBLIC "-//W3C//DTD SVG 1.1//EN"
  "http://www.w3.org/Graphics/SVG/1.1/DTD/svg11.dtd">
<svg xmlns:xlink="http://www.w3.org/1999/xlink" width="460.8pt" height="309.6pt" viewBox="0 0 460.8 309.6" xmlns="http://www.w3.org/2000/svg" version="1.1">
 <metadata>
  <rdf:RDF xmlns:dc="http://purl.org/dc/elements/1.1/" xmlns:cc="http://creativecommons.org/ns#" xmlns:rdf="http://www.w3.org/1999/02/22-rdf-syntax-ns#">
   <cc:Work>
    <dc:type rdf:resource="http://purl.org/dc/dcmitype/StillImage"/>
    <dc:date>2026-09-12T14:59:30.669791</dc:date>
    <dc:format>image/svg+xml</dc:format>
    <dc:creator>
     <cc:Agent>
      <dc:title>Matplotlib v3.10.7, https://matplotlib.org/</dc:title>
     </cc:Agent>
    </dc:creator>
   </cc:Work>
  </rdf:RDF>
 </metadata>
 <defs>
  <style type="text/css">*{stroke-linejoin: round; stroke-linecap: butt}</style>
 </defs>
 <g id="figure_1">
  <g id="patch_1">
   <path d="M 0 309.6 
L 460.8 309.6 
L 460.8 0 
L 0 0 
z
" style="fill: #ffffff"/>
  </g>
  <g id="axes_1">
   <g id="patch_2">
    <path d="M 141.984 256.968 
L 364.896 256.968 
L 364.896 34.056 
L 141.984 34.056 
z
" style="fill: #ffffff"/>
   </g>
   <g id="patch_3">
    <path d="M 253.44 248.394462 
C 280.724748 248.394462 306.895656 237.554116 326.188886 218.260886 
C 345.482116 198.967656 356.322462 172.796748 356.322462 145.512 
C 356.322462 118.227252 345.482116 92.056344 326.188886 72.763114 
C 306.895656 53.469884 280.724748 42.629538 253.44 42.629538 
C 226.155252 42.629538 199.984344 53.469884 180.691114 72.763114 
C 161.397884 92.056344 150.557538 118.227252 150.557538 145.512 
C 150.557538 172.796748 161.397884 198.967656 180.691114 218.260886 
C 199.984344 237.554116 226.155252 248.394462 253.44 248.394462 
L 253.44 248.394462 
z
" clip-path="url(#pa403d341f9)" style="fill: none; stroke: #999999; stroke-width: 0.7; stroke-linejoin: miter"/>
   </g>
   <g id="PathCollection_1">
    <defs>
     <path id="m5bef40cf99" d="M 0 2.738613 
C 0.726289 2.738613 1.422928 2.450055 1.936492 1.936492 
C 2.450055 1.422928 2.738613 0.726289 2.738613 0 
C 2.738613 -0.726289 2.450055 -1.422928 1.936492 -1.936492 
C 1.422928 -2.450055 0.726289 -2.738613 0 -2.738613 
C -0.726289 -2.738613 -1.422928 -2.450055 -1.936492 -1.936492 
C -2.450055 -1.422928 -2.738613 -0.726289 -2.738613 0 
C -2.738613 0.726289 -2.450055 1.422928 -1.936492 1.936492 
C -1.422928 2.450055 -0.726289 2.738613 0 2.738613 
z
" style="stroke: #0072b2; stroke-width: 0.6"/>
    </defs>
    <g clip-path="url(#pa403d341f9)">
     <use xlink:href="#m5bef40cf99" x="329.37642" y="94.697241" style="fill: #0072b2; stroke: #0072b2; stroke-width: 0.6"/>
     <use xlink:href="#m5bef40cf99" x="167.652826" y="106.950776" style="fill: #0072b2; stroke: #0072b2; stroke-width: 0.6"/>
     <use xlink:href="#m5bef40cf99" x="248.993794" y="143.923476" style="fill: #0072b2; stroke: #0072b2; stroke-width: 0.6"/>
     <use xlink:href="#m5bef40cf99" x="299.766908" y="162.10176" style="fill: #0072b2; stroke: #0072b2; stroke-width: 0.6"/>
     <use xlink:href="#m5bef40cf99" x="271.204641" y="142.64732" style="fill: #0072b2; stroke: #0072b2; stroke-width: 0.6"/>
     <use xlink:href="#m5bef40cf99" x="180.245237" y="77.812417" style="fill: #0072b2; stroke: #0072b2; stroke-width: 0.6"/>
     <use xlink:href="#m5bef40cf99" x="319.173566" y="133.382772" style="fill: #0072b2; stroke: #0072b2; stroke-width: 0.6"/>
     <use xlink:href="#m5bef40cf99" x="185.383077" y="143.720841" style="fill: #0072b2; stroke: #0072b2; stroke-width: 0.6"/>
     <use xlink:href="#m5bef40cf99" x="263.074553" y="97.026417" style="fill: #0072b2; stroke: #0072b2; stroke-width: 0.6"/>
     <use xlink:href="#m5bef40cf99" x="308.318947" y="138.056674" style="fill: #0072b2; stroke: #0072b2; stroke-width: 0.6"/>
     <use xlink:href="#m5bef40cf99" x="205.37774" y="205.344912" style="fill: #0072b2; stroke: #0072b2; stroke-width: 0.6"/>
    </g>
   </g>
   <g id="PathCollection_2">
    <defs>
     <path id="m143739272a" d="M -3.708099 0 
L 3.708099 0 
M 0 3.708099 
L 0 -3.708099 
" style="stroke: #000000; stroke-width: 1.1"/>
    </defs>
    <g clip-path="url(#pa403d341f9)">
     <use xlink:href="#m143739272a" x="253.44" y="145.512" style="stroke: #000000; stroke-width: 1.1"/>
    </g>
   </g>
   <g id="matplotlib.axis_1">
    <g id="xtick_1">
     <g id="line2d_1">
      <defs>
       <path id="m804cd62631" d="M 0 0 
L 0 3 
" style="stroke: #000000; stroke-width: 0.6"/>
      </defs>
      <g>
       <use xlink:href="#m804cd62631" x="167.704615" y="256.968" style="stroke: #000000; stroke-width: 0.6"/>
      </g>
     </g>
     <g id="text_1">
      <text style="font-size: 8px; font-family: 'Arial', 'Helvetica', 'DejaVu Sans', sans-serif; text-anchor: middle" x="167.704615" y="269.19425" transform="rotate(-0 167.704615 269.19425)">-1500</text>
     </g>
    </g>
    <g id="xtick_2">
     <g id="line2d_2">
      <g>
       <use xlink:href="#m804cd62631" x="253.44" y="256.968" style="stroke: #000000; stroke-width: 0.6"/>
      </g>
     </g>
     <g id="text_2">
      <text style="font-size: 8px; font-family: 'Arial', 'Helvetica', 'DejaVu Sans', sans-serif; text-anchor: middle" x="253.44" y="269.19425" transform="rotate(-0 253.44 269.19425)">0</text>
     </g>
    </g>
    <g id="xtick_3">
     <g id="line2d_3">
      <g>
       <use xlink:href="#m804cd62631" x="339.175385" y="256.968" style="stroke: #000000; stroke-width: 0.6"/>
      </g>
     </g>
     <g id="text_3">
      <text style="font-size: 8px; font-family: 'Arial', 'Helvetica', 'DejaVu Sans', sans-serif; text-anchor: middle" x="339.175385" y="269.19425" transform="rotate(-0 339.175385 269.19425)">1500</text>
     </g>
    </g>
    <g id="text_4">
     <text style="font-size: 10px; font-family: 'Arial', 'Helvetica', 'DejaVu Sans', sans-serif; text-anchor: middle" x="253.44" y="282.063937" transform="rotate(-0 253.44 282.063937)">East (m)</text>
    </g>
   </g>
   <g id="matplotlib.axis_2">
    <g id="ytick_1">
     <g id="line2d_4">
      <defs>
       <path id="me53f39c4d6" d="M 0 0 
L -3 0 
" style="stroke: #000000; stroke-width: 0.6"/>
      </defs>
      <g>
       <use xlink:href="#me53f39c4d6" x="141.984" y="231.247385" style="stroke: #000000; stroke-width: 0.6"/>
      </g>
     </g>
     <g id="text_5">
      <text style="font-size: 8px; font-family: 'Arial', 'Helvetica', 'DejaVu Sans', sans-serif; text-anchor: end" x="135.484" y="234.11051" transform="rotate(-0 135.484 234.11051)">-1500</text>
     </g>
    </g>
    <g id="ytick_2">
     <g id="line2d_5">
      <g>
       <use xlink:href="#me53f39c4d6" x="141.984" y="145.512" style="stroke: #000000; stroke-width: 0.6"/>
      </g>
     </g>
     <g id="text_6">
      <text style="font-size: 8px; font-family: 'Arial', 'Helvetica', 'DejaVu Sans', sans-serif; text-anchor: end" x="135.484" y="148.375125" transform="rotate(-0 135.484 148.375125)">0</text>
     </g>
    </g>
    <g id="ytick_3">
     <g id="line2d_6">
      <g>
       <use xlink:href="#me53f39c4d6" x="141.984" y="59.776615" style="stroke: #000000; stroke-width: 0.6"/>
      </g>
     </g>
     <g id="text_7">
      <text style="font-size: 8px; font-family: 'Arial', 'Helvetica', 'DejaVu Sans', sans-serif; text-anchor: end" x="135.484" y="62.63974" transform="rotate(-0 135.484 62.63974)">1500</text>
     </g>
    </g>
    <g id="text_8">
     <text style="font-size: 10px; font-family: 'Arial', 'Helvetica', 'DejaVu Sans', sans-serif; text-anchor: middle" x="108.920563" y="145.512" transform="rotate(-90 108.920563 145.512)">North (m)</text>
    </g>
   </g>
   <g id="patch_4">
    <path d="M 141.984 256.968 
L 141.984 34.056 
" style="fill: none; stroke: #000000; stroke-width: 0.7; stroke-linejoin: miter; stroke-linecap: square"/>
   </g>
   <g id="patch_5">
    <path d="M 141.984 256.968 
L 364.896 256.968 
" style="fill: none; stroke: #000000; stroke-width: 0.7; stroke-linejoin: miter; stroke-linecap: square"/>
   </g>
   <g id="legend_1">
    <g id="PathCollection_3">
     <g>
      <use xlink:href="#m5bef40cf99" x="192.624375" y="8.51383" style="fill: #0072b2; stroke: #0072b2; stroke-width: 0.6"/>
     </g>
    </g>
    <g id="text_9">
     <text style="font-size: 8px; font-family: 'Arial', 'Helvetica', 'DejaVu Sans', sans-serif; text-anchor: start" x="205.424375" y="10.61383" transform="rotate(-0 205.424375 10.61383)">Synthetic sources</text>
    </g>
    <g id="PathCollection_4">
     <g>
      <use xlink:href="#m143739272a" x="290.961875" y="8.51383" style="stroke: #000000; stroke-width: 1.1"/>
     </g>
    </g>
    <g id="text_10">
     <text style="font-size: 8px; font-family: 'Arial', 'Helvetica', 'DejaVu Sans', sans-serif; text-anchor: start" x="303.761875" y="10.61383" transform="rotate(-0 303.761875 10.61383)">Start</text>
    </g>
   </g>
  </g>
 </g>
 <defs>
  <clipPath id="pa403d341f9">
   <rect x="141.984" y="34.056" width="222.912" height="222.912"/>
  </clipPath>
 </defs>
</svg>
