<?xml version="1.0" encoding="utf-8" standalone="no"?>
<!DOCTYPE svg PUBLIC "-//W3C//DTD SVG 1.1//EN"
  "http://www.w3.org/Graphics/SVG/1.1/DTD/svg11.dtd">
<svg xmlns:xlink="http://www.w3.org/1999/xlink" width="306.27794pt" height="318.341339pt" viewBox="0 0 306.27794 318.341339" xmlns="http://www.w3.org/2000/svg" version="1.1">
 <metadata>
  <rdf:RDF xmlns:dc="http://purl.org/dc/elements/1.1/" xmlns:cc="http://creativecommons.org/ns#" xmlns:rdf="http://www.w3.org/1999/02/22-rdf-syntax-ns#">
   <cc:Work>
    <dc:type rdf:resource="http://purl.org/dc/dcmitype/StillImage"/>
    <dc:date>2026-09-13T03:50:16.603135</dc:date>
    <dc:format>image/svg+xml</dc:format>
    <dc:creator>
     <cc:Agent>
      <dc:title>Matplotlib v3.10.7, https://matplotlib.org/</dc:title>
     </cc:Agent>
    </dc:creator>
   </cc:Work>
  </rdf:RDF>
 </metadata>
 <defs>
  <style type="text/css">*{stroke-linejoin: round; stroke-linecap: butt}</style>
 </defs>
 <g id="figure_1">
  <g id="patch_1">
   <path d="M 0 318.341339 
L 306.27794 318.341339 
L 306.27794 0 
L 0 0 
z
" style="fill: #ffffff"/>
  </g>
  <g id="axes_1">
   <g id="patch_2">
    <path d="M 48.207813 284.174543 
L 299.07794 284.174543 
L 299.07794 33.304415 
L 48.207813 33.304415 
z
" style="fill: #ffffff"/>
   </g>
   <g id="patch_3">
    <path d="M 173.642876 272.771355 
C 203.884483 272.771355 232.891544 260.756237 254.275589 239.372192 
C 275.659634 217.988146 287.674752 188.981086 287.674752 158.739479 
C 287.674752 128.497872 275.659634 99.490811 254.275589 78.106766 
C 232.891544 56.722721 203.884483 44.707603 173.642876 44.707603 
C 143.401269 44.707603 114.394209 56.722721 93.010163 78.106766 
C 71.626118 99.490811 59.611 128.497872 59.611 158.739479 
C 59.611 188.981086 71.626118 217.988146 93.010163 239.372192 
C 114.394209 260.756237 143.401269 272.771355 173.642876 272.771355 
L 173.642876 272.771355 
z
" clip-path="url(#p2b9f1bc3b7)" style="fill: none; stroke: #6b7280; stroke-width: 0.9; stroke-linejoin: miter"/>
   </g>
   <g id="PathCollection_1">
    <defs>
     <path id="mc6677b3579" d="M 0 2.915476 
C 0.773193 2.915476 1.514823 2.608283 2.061553 2.061553 
C 2.608283 1.514823 2.915476 0.773193 2.915476 0 
C 2.915476 -0.773193 2.608283 -1.514823 2.061553 -2.061553 
C 1.514823 -2.608283 0.773193 -2.915476 0 -2.915476 
C -0.773193 -2.915476 -1.514823 -2.608283 -2.061553 -2.061553 
C -2.608283 -1.514823 -2.915476 -0.773193 -2.915476 0 
C -2.915476 0.773193 -2.608283 1.514823 -2.061553 2.061553 
C -1.514823 2.608283 -0.773193 2.915476 0 2.915476 
z
" style="stroke: #0072b2"/>
    </defs>
    <g clip-path="url(#p2b9f1bc3b7)">
     <use xlink:href="#mc6677b3579" x="257.808557" y="102.417904" style="fill: #0072b2; stroke: #0072b2"/>
     <use xlink:href="#mc6677b3579" x="78.558911" y="115.99936" style="fill: #0072b2; stroke: #0072b2"/>
     <use xlink:href="#mc6677b3579" x="168.714833" y="156.978805" style="fill: #0072b2; stroke: #0072b2"/>
     <use xlink:href="#mc6677b3579" x="224.99025" y="177.127078" style="fill: #0072b2; stroke: #0072b2"/>
     <use xlink:href="#mc6677b3579" x="193.332679" y="155.564352" style="fill: #0072b2; stroke: #0072b2"/>
     <use xlink:href="#mc6677b3579" x="92.515967" y="83.703264" style="fill: #0072b2; stroke: #0072b2"/>
     <use xlink:href="#mc6677b3579" x="246.500016" y="145.295801" style="fill: #0072b2; stroke: #0072b2"/>
     <use xlink:href="#mc6677b3579" x="98.210597" y="156.754212" style="fill: #0072b2; stroke: #0072b2"/>
     <use xlink:href="#mc6677b3579" x="184.32153" y="104.999493" style="fill: #0072b2; stroke: #0072b2"/>
     <use xlink:href="#mc6677b3579" x="234.469077" y="150.476216" style="fill: #0072b2; stroke: #0072b2"/>
     <use xlink:href="#mc6677b3579" x="120.372089" y="225.056508" style="fill: #0072b2; stroke: #0072b2"/>
    </g>
   </g>
   <g id="matplotlib.axis_1">
    <g id="xtick_1">
     <g id="line2d_1">
      <defs>
       <path id="mf95d55c5ec" d="M 0 0 
L 0 3.5 
" style="stroke: #000000; stroke-width: 0.8"/>
      </defs>
      <g>
       <use xlink:href="#mf95d55c5ec" x="78.616313" y="284.174543" style="stroke: #000000; stroke-width: 0.8"/>
      </g>
     </g>
     <g id="text_1">
      <text style="font-size: 8.5px; font-family: 'SimSun', 'Microsoft YaHei', 'SimHei', 'DejaVu Sans', sans-serif; text-anchor: middle" x="78.616313" y="297.250714" transform="rotate(-0 78.616313 297.250714)">-1500</text>
     </g>
    </g>
    <g id="xtick_2">
     <g id="line2d_2">
      <g>
       <use xlink:href="#mf95d55c5ec" x="173.642876" y="284.174543" style="stroke: #000000; stroke-width: 0.8"/>
      </g>
     </g>
     <g id="text_2">
      <text style="font-size: 8.5px; font-family: 'SimSun', 'Microsoft YaHei', 'SimHei', 'DejaVu Sans', sans-serif; text-anchor: middle" x="173.642876" y="297.250714" transform="rotate(-0 173.642876 297.250714)">0</text>
     </g>
    </g>
    <g id="xtick_3">
     <g id="line2d_3">
      <g>
       <use xlink:href="#mf95d55c5ec" x="268.669439" y="284.174543" style="stroke: #000000; stroke-width: 0.8"/>
      </g>
     </g>
     <g id="text_3">
      <text style="font-size: 8.5px; font-family: 'SimSun', 'Microsoft YaHei', 'SimHei', 'DejaVu Sans', sans-serif; text-anchor: middle" x="268.669439" y="297.250714" transform="rotate(-0 268.669439 297.250714)">1500</text>
     </g>
    </g>
    <g id="text_4">
     <text style="font-size: 9.5px; font-family: 'SimSun', 'Microsoft YaHei', 'SimHei', 'DejaVu Sans', sans-serif; text-anchor: middle" x="173.642876" y="309.91673" transform="rotate(-0 173.642876 309.91673)">东向坐标 / m</text>
    </g>
   </g>
   <g id="matplotlib.axis_2">
    <g id="ytick_1">
     <g id="line2d_4">
      <defs>
       <path id="mf9763c92a7" d="M 0 0 
L -3.5 0 
" style="stroke: #000000; stroke-width: 0.8"/>
      </defs>
      <g>
       <use xlink:href="#mf9763c92a7" x="48.207813" y="253.766042" style="stroke: #000000; stroke-width: 0.8"/>
      </g>
     </g>
     <g id="text_5">
      <text style="font-size: 8.5px; font-family: 'SimSun', 'Microsoft YaHei', 'SimHei', 'DejaVu Sans', sans-serif; text-anchor: end" x="41.207813" y="256.804128" transform="rotate(-0 41.207813 256.804128)">-1500</text>
     </g>
    </g>
    <g id="ytick_2">
     <g id="line2d_5">
      <g>
       <use xlink:href="#mf9763c92a7" x="48.207813" y="158.739479" style="stroke: #000000; stroke-width: 0.8"/>
      </g>
     </g>
     <g id="text_6">
      <text style="font-size: 8.5px; font-family: 'SimSun', 'Microsoft YaHei', 'SimHei', 'DejaVu Sans', sans-serif; text-anchor: end" x="41.207813" y="161.777565" transform="rotate(-0 41.207813 161.777565)">0</text>
     </g>
    </g>
    <g id="ytick_3">
     <g id="line2d_6">
      <g>
       <use xlink:href="#mf9763c92a7" x="48.207813" y="63.712916" style="stroke: #000000; stroke-width: 0.8"/>
      </g>
     </g>
     <g id="text_7">
      <text style="font-size: 8.5px; font-family: 'SimSun', 'Microsoft YaHei', 'SimHei', 'DejaVu Sans', sans-serif; text-anchor: end" x="41.207813" y="66.751001" transform="rotate(-0 41.207813 66.751001)">1500</text>
     </g>
    </g>
    <g id="text_8">
     <text style="font-size: 9.5px; font-family: 'SimSun', 'Microsoft YaHei', 'SimHei', 'DejaVu Sans', sans-serif; text-anchor: middle" x="14.733203" y="158.739479" transform="rotate(-90 14.733203 158.739479)">北向坐标 / m</text>
    </g>
   </g>
   <g id="line2d_7">
    <path d="M 173.642876 158.739479 
" clip-path="url(#p2b9f1bc3b7)" style="fill: none; stroke: #222222; stroke-width: 1.2; stroke-linecap: square"/>
    <defs>
     <path id="mf4eb30fe7b" d="M -5.5 0 
L 5.5 0 
M 0 5.5 
L 0 -5.5 
" style="stroke: #222222; stroke-width: 2"/>
    </defs>
    <g clip-path="url(#p2b9f1bc3b7)">
     <use xlink:href="#mf4eb30fe7b" x="173.642876" y="158.739479" style="fill: #222222; stroke: #222222; stroke-width: 2"/>
    </g>
   </g>
   <g id="patch_4">
    <path d="M 48.207813 284.174543 
L 48.207813 33.304415 
" style="fill: none; stroke: #000000; stroke-width: 0.8; stroke-linejoin: miter; stroke-linecap: square"/>
   </g>
   <g id="patch_5">
    <path d="M 48.207812 284.174543 
L 299.07794 284.174543 
" style="fill: none; stroke: #000000; stroke-width: 0.8; stroke-linejoin: miter; stroke-linecap: square"/>
   </g>
   <g id="legend_1">
    <g id="PathCollection_2">
     <g>
      <use xlink:href="#mc6677b3579" x="69.242876" y="14.76875" style="fill: #0072b2; stroke: #0072b2"/>
     </g>
    </g>
    <g id="text_9">
     <text style="font-size: 8px; font-family: 'SimSun', 'Microsoft YaHei', 'SimHei', 'DejaVu Sans', sans-serif; text-anchor: start" x="83.642876" y="16.86875" transform="rotate(-0 83.642876 16.86875)">合成干扰源（真值仅供离线绘图）</text>
    </g>
    <g id="line2d_8">
     <path d="M 219.642876 14.06875 
L 227.642876 14.06875 
L 235.642876 14.06875 
" style="fill: none; stroke: #222222; stroke-width: 1.2; stroke-linecap: square"/>
     <g>
      <use xlink:href="#mf4eb30fe7b" x="227.642876" y="14.06875" style="fill: #222222; stroke: #222222; stroke-width: 2"/>
     </g>
    </g>
    <g id="text_10">
     <text style="font-size: 8px; font-family: 'SimSun', 'Microsoft YaHei', 'SimHei', 'DejaVu Sans', sans-serif; text-anchor: start" x="242.042876" y="16.86875" transform="rotate(-0 242.042876 16.86875)">起点 (0, 0)</text>
    </g>
   </g>
  </g>
 </g>
 <defs>
  <clipPath id="p2b9f1bc3b7">
   <rect x="48.207813" y="33.304415" width="250.870127" height="250.870127"/>
  </clipPath>
 </defs>
</svg>
