<?xml version="1.0" encoding="utf-8" standalone="no"?>
<!DOCTYPE svg PUBLIC "-//W3C//DTD SVG 1.1//EN"
  "http://www.w3.org/Graphics/SVG/1.1/DTD/svg11.dtd">
<svg xmlns:xlink="http://www.w3.org/1999/xlink" width="488.64384pt" height="253.867173pt" viewBox="0 0 488.64384 253.867173" xmlns="http://www.w3.org/2000/svg" version="1.1">
 <metadata>
  <rdf:RDF xmlns:dc="http://purl.org/dc/elements/1.1/" xmlns:cc="http://creativecommons.org/ns#" xmlns:rdf="http://www.w3.org/1999/02/22-rdf-syntax-ns#">
   <cc:Work>
    <dc:type rdf:resource="http://purl.org/dc/dcmitype/StillImage"/>
    <dc:date>2026-09-13T03:50:20.904390</dc:date>
    <dc:format>image/svg+xml</dc:format>
    <dc:creator>
     <cc:Agent>
      <dc:title>Matplotlib v3.10.7, https://matplotlib.org/</dc:title>
     </cc:Agent>
    </dc:creator>
   </cc:Work>
  </rdf:RDF>
 </metadata>
 <defs>
  <style type="text/css">*{stroke-linejoin: round; stroke-linecap: butt}</style>
 </defs>
 <g id="figure_1">
  <g id="patch_1">
   <path d="M 0 253.867173 
L 488.64384 253.867173 
L 488.64384 0 
L 0 0 
z
" style="fill: #ffffff"/>
  </g>
  <g id="axes_1">
   <g id="patch_2">
    <path d="M 7.2 246.667173 
L 188.464364 246.667173 
L 188.464364 20.086719 
L 7.2 20.086719 
z
" style="fill: #ffffff"/>
   </g>
   <g id="patch_3">
    <path d="M 90.749109 205.597033 
L 226.155124 91.909845 
L 29.930694 -21.380382 
L -0.822291 152.72826 
z
" clip-path="url(#p9cd62ee3c0)" style="fill: #0072b2; opacity: 0.1"/>
   </g>
   <g id="patch_4">
    <path d="M 71.397795 224.009128 
C 95.433731 224.009128 118.488453 214.459549 135.484426 197.463576 
C 152.480399 180.467603 162.029977 157.412882 162.029977 133.376946 
C 162.029977 109.34101 152.480399 86.286289 135.484426 69.290316 
C 118.488453 52.294343 95.433731 42.744764 71.397795 42.744764 
C 47.36186 42.744764 24.307138 52.294343 7.311165 69.290316 
C -9.684808 86.286289 -19.234386 109.34101 -19.234386 133.376946 
C -19.234386 157.412882 -9.684808 180.467603 7.311165 197.463576 
C 24.307138 214.459549 47.36186 224.009128 71.397795 224.009128 
L 71.397795 224.009128 
z
" clip-path="url(#p9cd62ee3c0)" style="fill: none; stroke-dasharray: 3.33,1.44; stroke-dashoffset: 0; stroke: #6b7280; stroke-width: 0.9; stroke-linejoin: miter"/>
   </g>
   <g id="patch_5">
    <path d="M 71.397795 133.75458 
C 71.497945 133.75458 71.594007 133.71479 71.664823 133.643974 
C 71.73564 133.573157 71.77543 133.477096 71.77543 133.376946 
C 71.77543 133.276796 71.73564 133.180735 71.664823 133.109918 
C 71.594007 133.039102 71.497945 132.999312 71.397795 132.999312 
C 71.297646 132.999312 71.201584 133.039102 71.130768 133.109918 
C 71.059951 133.180735 71.020161 133.276796 71.020161 133.376946 
C 71.020161 133.477096 71.059951 133.573157 71.130768 133.643974 
C 71.201584 133.71479 71.297646 133.75458 71.397795 133.75458 
z
" clip-path="url(#p9cd62ee3c0)" style="fill: #e69f00; opacity: 0.9"/>
   </g>
   <g id="matplotlib.axis_1"/>
   <g id="matplotlib.axis_2"/>
   <g id="patch_6">
    <path d="M 7.2 246.667173 
L 7.2 20.086719 
" style="fill: none; stroke: #000000; stroke-width: 0.8; stroke-linejoin: miter; stroke-linecap: square"/>
   </g>
   <g id="patch_7">
    <path d="M 7.2 246.667173 
L 188.464364 246.667173 
" style="fill: none; stroke: #000000; stroke-width: 0.8; stroke-linejoin: miter; stroke-linecap: square"/>
   </g>
   <g id="patch_8">
    <path d="M 72.397083 131.646129 
Q 83.671123 112.118918 94.274344 93.753602 
" style="fill: none; stroke: #222222; stroke-width: 1.2; stroke-linecap: round"/>
    <path d="M 90.915498 95.971294 
L 94.274344 93.753602 
L 94.033189 97.771294 
z
" style="fill: #222222; stroke: #222222; stroke-width: 1.2; stroke-linecap: round"/>
   </g>
   <g id="text_1">
    <text style="font-size: 8.2px; font-family: 'SimSun', 'Microsoft YaHei', 'SimHei', 'DejaVu Sans', sans-serif; text-anchor: start" x="91.213661" y="90.74691" transform="rotate(-0 91.213661 90.74691)">定向方向 δ</text>
   </g>
   <g id="text_2">
    <text style="font-size: 8px; font-family: 'SimSun', 'Microsoft YaHei', 'SimHei', 'DejaVu Sans', sans-serif; text-anchor: start; fill: #009e73" x="77.332532" y="94.246702" transform="rotate(-0 77.332532 94.246702)">direction</text>
   </g>
   <g id="text_3">
    <text style="font-size: 8px; font-family: 'SimSun', 'Microsoft YaHei', 'SimHei', 'DejaVu Sans', sans-serif; fill: #d55e00" transform="translate(20.794827 122.442391)">no_signal</text>
    <text style="font-size: 8px; font-family: 'SimSun', 'Microsoft YaHei', 'SimHei', 'DejaVu Sans', sans-serif; fill: #d55e00" transform="translate(20.794827 131.111141)">(扇区外)</text>
   </g>
   <g id="text_4">
    <text style="font-size: 8px; font-family: 'SimSun', 'Microsoft YaHei', 'SimHei', 'DejaVu Sans', sans-serif; fill: #d55e00" transform="translate(165.235 69.195985)">no_signal</text>
    <text style="font-size: 8px; font-family: 'SimSun', 'Microsoft YaHei', 'SimHei', 'DejaVu Sans', sans-serif; fill: #d55e00" transform="translate(165.235 77.864735)">(超出半径)</text>
   </g>
   <g id="text_5">
    <text style="font-size: 8px; font-family: 'SimSun', 'Microsoft YaHei', 'SimHei', 'DejaVu Sans', sans-serif; text-anchor: start; fill: #e69f00" x="63.185602" y="138.458472" transform="rotate(-0 63.185602 138.458472)">near</text>
   </g>
   <g id="text_6">
    <text style="font-size: 8.6px; font-family: 'SimSun', 'Microsoft YaHei', 'SimHei', 'DejaVu Sans', sans-serif; text-anchor: start" x="7.2" y="14.086719" transform="rotate(-0 7.2 14.086719)">(a) 定向源可见性：距离≤R 且位于±90°扇区内</text>
   </g>
   <g id="line2d_1">
    <path d="M 74.689093 95.757238 
" clip-path="url(#p9cd62ee3c0)" style="fill: none; stroke: #009e73; stroke-width: 1.2; stroke-linecap: square"/>
    <defs>
     <path id="m6da285ce6d" d="M 0 2.5 
C 0.663008 2.5 1.29895 2.236584 1.767767 1.767767 
C 2.236584 1.29895 2.5 0.663008 2.5 0 
C 2.5 -0.663008 2.236584 -1.29895 1.767767 -1.767767 
C 1.29895 -2.236584 0.663008 -2.5 0 -2.5 
C -0.663008 -2.5 -1.29895 -2.236584 -1.767767 -1.767767 
C -2.236584 -1.29895 -2.5 -0.663008 -2.5 0 
C -2.5 0.663008 -2.236584 1.29895 -1.767767 1.767767 
C -1.29895 2.236584 -0.663008 2.5 0 2.5 
z
" style="stroke: #009e73"/>
    </defs>
    <g clip-path="url(#p9cd62ee3c0)">
     <use xlink:href="#m6da285ce6d" x="74.689093" y="95.757238" style="fill: #009e73; stroke: #009e73"/>
    </g>
   </g>
   <g id="line2d_2">
    <path d="M 32.12385 133.376946 
" clip-path="url(#p9cd62ee3c0)" style="fill: none; stroke: #d55e00; stroke-width: 1.2; stroke-linecap: square"/>
    <defs>
     <path id="mc5c7be9b94" d="M 0 2.5 
C 0.663008 2.5 1.29895 2.236584 1.767767 1.767767 
C 2.236584 1.29895 2.5 0.663008 2.5 0 
C 2.5 -0.663008 2.236584 -1.29895 1.767767 -1.767767 
C 1.29895 -2.236584 0.663008 -2.5 0 -2.5 
C -0.663008 -2.5 -1.29895 -2.236584 -1.767767 -1.767767 
C -2.236584 -1.29895 -2.5 -0.663008 -2.5 0 
C -2.5 0.663008 -2.236584 1.29895 -1.767767 1.767767 
C -1.29895 2.236584 -0.663008 2.5 0 2.5 
z
" style="stroke: #d55e00"/>
    </defs>
    <g clip-path="url(#p9cd62ee3c0)">
     <use xlink:href="#mc5c7be9b94" x="32.12385" y="133.376946" style="fill: #d55e00; stroke: #d55e00"/>
    </g>
   </g>
   <g id="line2d_3">
    <path d="M 162.969196 80.508173 
" clip-path="url(#p9cd62ee3c0)" style="fill: none; stroke: #d55e00; stroke-width: 1.2; stroke-linecap: square"/>
    <g clip-path="url(#p9cd62ee3c0)">
     <use xlink:href="#mc5c7be9b94" x="162.969196" y="80.508173" style="fill: #d55e00; stroke: #d55e00"/>
    </g>
   </g>
   <g id="line2d_4">
    <path d="M 71.493552 133.171594 
" clip-path="url(#p9cd62ee3c0)" style="fill: none; stroke: #e69f00; stroke-width: 1.2; stroke-linecap: square"/>
    <defs>
     <path id="mfa7ef03b44" d="M 0 2.5 
C 0.663008 2.5 1.29895 2.236584 1.767767 1.767767 
C 2.236584 1.29895 2.5 0.663008 2.5 0 
C 2.5 -0.663008 2.236584 -1.29895 1.767767 -1.767767 
C 1.29895 -2.236584 0.663008 -2.5 0 -2.5 
C -0.663008 -2.5 -1.29895 -2.236584 -1.767767 -1.767767 
C -2.236584 -1.29895 -2.5 -0.663008 -2.5 0 
C -2.5 0.663008 -2.236584 1.29895 -1.767767 1.767767 
C -1.29895 2.236584 -0.663008 2.5 0 2.5 
z
" style="stroke: #e69f00"/>
    </defs>
    <g clip-path="url(#p9cd62ee3c0)">
     <use xlink:href="#mfa7ef03b44" x="71.493552" y="133.171594" style="fill: #e69f00; stroke: #e69f00"/>
    </g>
   </g>
   <g id="line2d_5">
    <path d="M 71.397795 133.376946 
" clip-path="url(#p9cd62ee3c0)" style="fill: none; stroke: #000000; stroke-width: 1.2; stroke-linecap: square"/>
    <defs>
     <path id="md2eac58c10" d="M 0 -6 
L -1.347084 -1.854102 
L -5.706339 -1.854102 
L -2.179628 0.708204 
L -3.526712 4.854102 
L -0 2.291796 
L 3.526712 4.854102 
L 2.179628 0.708204 
L 5.706339 -1.854102 
L 1.347084 -1.854102 
z
" style="stroke: #000000; stroke-linejoin: bevel"/>
    </defs>
    <g clip-path="url(#p9cd62ee3c0)">
     <use xlink:href="#md2eac58c10" x="71.397795" y="133.376946" style="stroke: #000000; stroke-linejoin: bevel"/>
    </g>
   </g>
  </g>
  <g id="axes_2">
   <g id="patch_9">
    <path d="M 254.863386 246.667173 
L 481.44384 246.667173 
L 481.44384 20.086719 
L 254.863386 20.086719 
z
" style="fill: #ffffff"/>
   </g>
   <g id="patch_10">
    <path d="M 368.153613 236.368062 
C 395.467176 236.368062 421.665724 225.516268 440.979329 206.202662 
C 460.292935 186.889057 471.144729 160.690509 471.144729 133.376946 
C 471.144729 106.063383 460.292935 79.864835 440.979329 60.55123 
C 421.665724 41.237624 395.467176 30.38583 368.153613 30.38583 
C 340.84005 30.38583 314.641502 41.237624 295.327897 60.55123 
C 276.014291 79.864835 265.162497 106.063383 265.162497 133.376946 
C 265.162497 160.690509 276.014291 186.889057 295.327897 206.202662 
C 314.641502 225.516268 340.84005 236.368062 368.153613 236.368062 
L 368.153613 236.368062 
z
" clip-path="url(#p464dd0b62c)" style="fill: none; stroke: #6b7280; stroke-width: 0.9; stroke-linejoin: miter"/>
   </g>
   <g id="patch_11">
    <path d="M 402.483985 99.046574 
L 436.814357 99.046574 
L 436.814357 64.716202 
L 402.483985 64.716202 
z
" clip-path="url(#p464dd0b62c)" style="fill: #e69f00; opacity: 0.22; stroke: #e69f00; stroke-linejoin: miter"/>
   </g>
   <g id="matplotlib.axis_3"/>
   <g id="matplotlib.axis_4"/>
   <g id="line2d_6">
    <path d="M 427.087418 77.304005 
L 436.814357 64.716202 
" clip-path="url(#p464dd0b62c)" style="fill: none; stroke-dasharray: 3.33,1.44; stroke-dashoffset: 0; stroke: #222222; stroke-width: 0.9"/>
   </g>
   <g id="patch_12">
    <path d="M 254.863386 246.667173 
L 254.863386 20.086719 
" style="fill: none; stroke: #000000; stroke-width: 0.8; stroke-linejoin: miter; stroke-linecap: square"/>
   </g>
   <g id="patch_13">
    <path d="M 254.863386 246.667173 
L 481.44384 246.667173 
" style="fill: none; stroke: #000000; stroke-width: 0.8; stroke-linejoin: miter; stroke-linecap: square"/>
   </g>
   <g id="text_7">
    <text style="font-size: 8px; font-family: 'SimSun', 'Microsoft YaHei', 'SimHei', 'DejaVu Sans', sans-serif" transform="translate(427.587951 75.498351) rotate(-36)">≤848.53 m</text>
   </g>
   <g id="text_8">
    <text style="font-size: 8.6px; font-family: 'SimSun', 'Microsoft YaHei', 'SimHei', 'DejaVu Sans', sans-serif; text-anchor: start" x="254.863386" y="14.086719" transform="rotate(-0 254.863386 14.086719)">(b) 600 m网格四角：每单元格至少有1个可见角点</text>
   </g>
   <g id="PathCollection_1">
    <defs>
     <path id="mdc7777aa45" d="M 0 1.581139 
C 0.419323 1.581139 0.821528 1.41454 1.118034 1.118034 
C 1.41454 0.821528 1.581139 0.419323 1.581139 0 
C 1.581139 -0.419323 1.41454 -0.821528 1.118034 -1.118034 
C 0.821528 -1.41454 0.419323 -1.581139 0 -1.581139 
C -0.419323 -1.581139 -0.821528 -1.41454 -1.118034 -1.118034 
C -1.41454 -0.821528 -1.581139 -0.419323 -1.581139 0 
C -1.581139 0.419323 -1.41454 0.821528 -1.118034 1.118034 
C -0.821528 1.41454 -0.419323 1.581139 0 1.581139 
z
" style="stroke: #0072b2"/>
    </defs>
    <g clip-path="url(#p464dd0b62c)">
     <use xlink:href="#mdc7777aa45" x="265.162497" y="236.368062" style="fill: #0072b2; stroke: #0072b2"/>
     <use xlink:href="#mdc7777aa45" x="265.162497" y="202.03769" style="fill: #0072b2; stroke: #0072b2"/>
     <use xlink:href="#mdc7777aa45" x="265.162497" y="167.707318" style="fill: #0072b2; stroke: #0072b2"/>
     <use xlink:href="#mdc7777aa45" x="265.162497" y="133.376946" style="fill: #0072b2; stroke: #0072b2"/>
     <use xlink:href="#mdc7777aa45" x="265.162497" y="99.046574" style="fill: #0072b2; stroke: #0072b2"/>
     <use xlink:href="#mdc7777aa45" x="265.162497" y="64.716202" style="fill: #0072b2; stroke: #0072b2"/>
     <use xlink:href="#mdc7777aa45" x="265.162497" y="30.38583" style="fill: #0072b2; stroke: #0072b2"/>
     <use xlink:href="#mdc7777aa45" x="299.492869" y="236.368062" style="fill: #0072b2; stroke: #0072b2"/>
     <use xlink:href="#mdc7777aa45" x="299.492869" y="202.03769" style="fill: #0072b2; stroke: #0072b2"/>
     <use xlink:href="#mdc7777aa45" x="299.492869" y="167.707318" style="fill: #0072b2; stroke: #0072b2"/>
     <use xlink:href="#mdc7777aa45" x="299.492869" y="133.376946" style="fill: #0072b2; stroke: #0072b2"/>
     <use xlink:href="#mdc7777aa45" x="299.492869" y="99.046574" style="fill: #0072b2; stroke: #0072b2"/>
     <use xlink:href="#mdc7777aa45" x="299.492869" y="64.716202" style="fill: #0072b2; stroke: #0072b2"/>
     <use xlink:href="#mdc7777aa45" x="299.492869" y="30.38583" style="fill: #0072b2; stroke: #0072b2"/>
     <use xlink:href="#mdc7777aa45" x="333.823241" y="236.368062" style="fill: #0072b2; stroke: #0072b2"/>
     <use xlink:href="#mdc7777aa45" x="333.823241" y="202.03769" style="fill: #0072b2; stroke: #0072b2"/>
     <use xlink:href="#mdc7777aa45" x="333.823241" y="167.707318" style="fill: #0072b2; stroke: #0072b2"/>
     <use xlink:href="#mdc7777aa45" x="333.823241" y="133.376946" style="fill: #0072b2; stroke: #0072b2"/>
     <use xlink:href="#mdc7777aa45" x="333.823241" y="99.046574" style="fill: #0072b2; stroke: #0072b2"/>
     <use xlink:href="#mdc7777aa45" x="333.823241" y="64.716202" style="fill: #0072b2; stroke: #0072b2"/>
     <use xlink:href="#mdc7777aa45" x="333.823241" y="30.38583" style="fill: #0072b2; stroke: #0072b2"/>
     <use xlink:href="#mdc7777aa45" x="368.153613" y="236.368062" style="fill: #0072b2; stroke: #0072b2"/>
     <use xlink:href="#mdc7777aa45" x="368.153613" y="202.03769" style="fill: #0072b2; stroke: #0072b2"/>
     <use xlink:href="#mdc7777aa45" x="368.153613" y="167.707318" style="fill: #0072b2; stroke: #0072b2"/>
     <use xlink:href="#mdc7777aa45" x="368.153613" y="133.376946" style="fill: #0072b2; stroke: #0072b2"/>
     <use xlink:href="#mdc7777aa45" x="368.153613" y="99.046574" style="fill: #0072b2; stroke: #0072b2"/>
     <use xlink:href="#mdc7777aa45" x="368.153613" y="64.716202" style="fill: #0072b2; stroke: #0072b2"/>
     <use xlink:href="#mdc7777aa45" x="368.153613" y="30.38583" style="fill: #0072b2; stroke: #0072b2"/>
     <use xlink:href="#mdc7777aa45" x="402.483985" y="236.368062" style="fill: #0072b2; stroke: #0072b2"/>
     <use xlink:href="#mdc7777aa45" x="402.483985" y="202.03769" style="fill: #0072b2; stroke: #0072b2"/>
     <use xlink:href="#mdc7777aa45" x="402.483985" y="167.707318" style="fill: #0072b2; stroke: #0072b2"/>
     <use xlink:href="#mdc7777aa45" x="402.483985" y="133.376946" style="fill: #0072b2; stroke: #0072b2"/>
     <use xlink:href="#mdc7777aa45" x="402.483985" y="99.046574" style="fill: #0072b2; stroke: #0072b2"/>
     <use xlink:href="#mdc7777aa45" x="402.483985" y="64.716202" style="fill: #0072b2; stroke: #0072b2"/>
     <use xlink:href="#mdc7777aa45" x="402.483985" y="30.38583" style="fill: #0072b2; stroke: #0072b2"/>
     <use xlink:href="#mdc7777aa45" x="436.814357" y="236.368062" style="fill: #0072b2; stroke: #0072b2"/>
     <use xlink:href="#mdc7777aa45" x="436.814357" y="202.03769" style="fill: #0072b2; stroke: #0072b2"/>
     <use xlink:href="#mdc7777aa45" x="436.814357" y="167.707318" style="fill: #0072b2; stroke: #0072b2"/>
     <use xlink:href="#mdc7777aa45" x="436.814357" y="133.376946" style="fill: #0072b2; stroke: #0072b2"/>
     <use xlink:href="#mdc7777aa45" x="436.814357" y="99.046574" style="fill: #0072b2; stroke: #0072b2"/>
     <use xlink:href="#mdc7777aa45" x="436.814357" y="64.716202" style="fill: #0072b2; stroke: #0072b2"/>
     <use xlink:href="#mdc7777aa45" x="436.814357" y="30.38583" style="fill: #0072b2; stroke: #0072b2"/>
     <use xlink:href="#mdc7777aa45" x="471.144729" y="236.368062" style="fill: #0072b2; stroke: #0072b2"/>
     <use xlink:href="#mdc7777aa45" x="471.144729" y="202.03769" style="fill: #0072b2; stroke: #0072b2"/>
     <use xlink:href="#mdc7777aa45" x="471.144729" y="167.707318" style="fill: #0072b2; stroke: #0072b2"/>
     <use xlink:href="#mdc7777aa45" x="471.144729" y="133.376946" style="fill: #0072b2; stroke: #0072b2"/>
     <use xlink:href="#mdc7777aa45" x="471.144729" y="99.046574" style="fill: #0072b2; stroke: #0072b2"/>
     <use xlink:href="#mdc7777aa45" x="471.144729" y="64.716202" style="fill: #0072b2; stroke: #0072b2"/>
     <use xlink:href="#mdc7777aa45" x="471.144729" y="30.38583" style="fill: #0072b2; stroke: #0072b2"/>
    </g>
   </g>
   <g id="line2d_7">
    <path d="M 402.483985 99.046574 
" clip-path="url(#p464dd0b62c)" style="fill: none; stroke: #222222; stroke-width: 1.2; stroke-linecap: square"/>
    <defs>
     <path id="me49b3dcc83" d="M 0 2.25 
C 0.596707 2.25 1.169055 2.012926 1.59099 1.59099 
C 2.012926 1.169055 2.25 0.596707 2.25 0 
C 2.25 -0.596707 2.012926 -1.169055 1.59099 -1.59099 
C 1.169055 -2.012926 0.596707 -2.25 0 -2.25 
C -0.596707 -2.25 -1.169055 -2.012926 -1.59099 -1.59099 
C -2.012926 -1.169055 -2.25 -0.596707 -2.25 0 
C -2.25 0.596707 -2.012926 1.169055 -1.59099 1.59099 
C -1.169055 2.012926 -0.596707 2.25 0 2.25 
z
" style="stroke: #222222"/>
    </defs>
    <g clip-path="url(#p464dd0b62c)">
     <use xlink:href="#me49b3dcc83" x="402.483985" y="99.046574" style="fill: #222222; stroke: #222222"/>
    </g>
   </g>
   <g id="line2d_8">
    <path d="M 436.814357 99.046574 
" clip-path="url(#p464dd0b62c)" style="fill: none; stroke: #222222; stroke-width: 1.2; stroke-linecap: square"/>
    <g clip-path="url(#p464dd0b62c)">
     <use xlink:href="#me49b3dcc83" x="436.814357" y="99.046574" style="fill: #222222; stroke: #222222"/>
    </g>
   </g>
   <g id="line2d_9">
    <path d="M 436.814357 64.716202 
" clip-path="url(#p464dd0b62c)" style="fill: none; stroke: #222222; stroke-width: 1.2; stroke-linecap: square"/>
    <g clip-path="url(#p464dd0b62c)">
     <use xlink:href="#me49b3dcc83" x="436.814357" y="64.716202" style="fill: #222222; stroke: #222222"/>
    </g>
   </g>
   <g id="line2d_10">
    <path d="M 402.483985 64.716202 
" clip-path="url(#p464dd0b62c)" style="fill: none; stroke: #222222; stroke-width: 1.2; stroke-linecap: square"/>
    <g clip-path="url(#p464dd0b62c)">
     <use xlink:href="#me49b3dcc83" x="402.483985" y="64.716202" style="fill: #222222; stroke: #222222"/>
    </g>
   </g>
   <g id="line2d_11">
    <path d="M 427.087418 77.304005 
" clip-path="url(#p464dd0b62c)" style="fill: none; stroke: #000000; stroke-width: 1.2; stroke-linecap: square"/>
    <defs>
     <path id="ma6b0d5434f" d="M 0 -5.5 
L -1.234827 -1.699593 
L -5.230811 -1.699593 
L -1.997992 0.649187 
L -3.232819 4.449593 
L -0 2.100813 
L 3.232819 4.449593 
L 1.997992 0.649187 
L 5.230811 -1.699593 
L 1.234827 -1.699593 
z
" style="stroke: #000000; stroke-linejoin: bevel"/>
    </defs>
    <g clip-path="url(#p464dd0b62c)">
     <use xlink:href="#ma6b0d5434f" x="427.087418" y="77.304005" style="stroke: #000000; stroke-linejoin: bevel"/>
    </g>
   </g>
  </g>
 </g>
 <defs>
  <clipPath id="p9cd62ee3c0">
   <rect x="7.2" y="20.086719" width="181.264364" height="226.580455"/>
  </clipPath>
  <clipPath id="p464dd0b62c">
   <rect x="254.863386" y="20.086719" width="226.580455" height="226.580455"/>
  </clipPath>
 </defs>
</svg>
