<?xml version="1.0" encoding="utf-8" standalone="no"?>
<!DOCTYPE svg PUBLIC "-//W3C//DTD SVG 1.1//EN"
  "http://www.w3.org/Graphics/SVG/1.1/DTD/svg11.dtd">
<svg xmlns:xlink="http://www.w3.org/1999/xlink" width="446.4pt" height="302.4pt" viewBox="0 0 446.4 302.4" xmlns="http://www.w3.org/2000/svg" version="1.1">
 <metadata>
  <rdf:RDF xmlns:dc="http://purl.org/dc/elements/1.1/" xmlns:cc="http://creativecommons.org/ns#" xmlns:rdf="http://www.w3.org/1999/02/22-rdf-syntax-ns#">
   <cc:Work>
    <dc:type rdf:resource="http://purl.org/dc/dcmitype/StillImage"/>
    <dc:date>2026-09-11T22:51:42.562897</dc:date>
    <dc:format>image/svg+xml</dc:format>
    <dc:creator>
     <cc:Agent>
      <dc:title>Matplotlib v3.10.7, https://matplotlib.org/</dc:title>
     </cc:Agent>
    </dc:creator>
   </cc:Work>
  </rdf:RDF>
 </metadata>
 <defs>
  <style type="text/css">*{stroke-linejoin: round; stroke-linecap: butt}</style>
 </defs>
 <g id="figure_1">
  <g id="patch_1">
   <path d="M 0 302.4 
L 446.4 302.4 
L 446.4 0 
L 0 0 
z
" style="fill: #ffffff"/>
  </g>
  <g id="axes_1">
   <g id="patch_2">
    <path d="M 62.496 254.016 
L 428.544 254.016 
L 428.544 27.216 
L 62.496 27.216 
z
" style="fill: #ffffff"/>
   </g>
   <g id="PathCollection_1">
    <defs>
     <path id="m100b2a0de3" d="M -2.645751 2.645751 
L 2.645751 2.645751 
L 2.645751 -2.645751 
L -2.645751 -2.645751 
z
" style="stroke: #d55e00; stroke-width: 0.6"/>
    </defs>
    <g clip-path="url(#pe2ae04fd3f)">
     <use xlink:href="#m100b2a0de3" x="411.113143" y="46.116" style="fill: #d55e00; stroke: #d55e00; stroke-width: 0.6"/>
    </g>
   </g>
   <g id="PathCollection_2">
    <defs>
     <path id="mb551492aa0" d="M 0 2.645751 
C 0.701661 2.645751 1.374679 2.366978 1.870829 1.870829 
C 2.366978 1.374679 2.645751 0.701661 2.645751 0 
C 2.645751 -0.701661 2.366978 -1.374679 1.870829 -1.870829 
C 1.374679 -2.366978 0.701661 -2.645751 0 -2.645751 
C -0.701661 -2.645751 -1.374679 -2.366978 -1.870829 -1.870829 
C -2.366978 -1.374679 -2.645751 -0.701661 -2.645751 0 
C -2.645751 0.701661 -2.366978 1.374679 -1.870829 1.870829 
C -1.374679 2.366978 -0.701661 2.645751 0 2.645751 
z
" style="stroke: #0072b2; stroke-width: 0.6"/>
    </defs>
    <g clip-path="url(#pe2ae04fd3f)">
     <use xlink:href="#mb551492aa0" x="257.175387" y="46.116" style="fill: #0072b2; stroke: #0072b2; stroke-width: 0.6"/>
    </g>
   </g>
   <g id="matplotlib.axis_1">
    <g id="xtick_1">
     <g id="line2d_1">
      <defs>
       <path id="m9ae86a6499" d="M 0 0 
L 0 3 
" style="stroke: #000000; stroke-width: 0.6"/>
      </defs>
      <g>
       <use xlink:href="#m9ae86a6499" x="62.496" y="254.016" style="stroke: #000000; stroke-width: 0.6"/>
      </g>
     </g>
     <g id="text_1">
      <text style="font-size: 8px; font-family: 'Arial', 'Helvetica', 'DejaVu Sans', sans-serif; text-anchor: middle" x="62.496" y="266.24225" transform="rotate(-0 62.496 266.24225)">0</text>
     </g>
    </g>
    <g id="xtick_2">
     <g id="line2d_2">
      <g>
       <use xlink:href="#m9ae86a6499" x="125.944699" y="254.016" style="stroke: #000000; stroke-width: 0.6"/>
      </g>
     </g>
     <g id="text_2">
      <text style="font-size: 8px; font-family: 'Arial', 'Helvetica', 'DejaVu Sans', sans-serif; text-anchor: middle" x="125.944699" y="266.24225" transform="rotate(-0 125.944699 266.24225)">1000</text>
     </g>
    </g>
    <g id="xtick_3">
     <g id="line2d_3">
      <g>
       <use xlink:href="#m9ae86a6499" x="189.393398" y="254.016" style="stroke: #000000; stroke-width: 0.6"/>
      </g>
     </g>
     <g id="text_3">
      <text style="font-size: 8px; font-family: 'Arial', 'Helvetica', 'DejaVu Sans', sans-serif; text-anchor: middle" x="189.393398" y="266.24225" transform="rotate(-0 189.393398 266.24225)">2000</text>
     </g>
    </g>
    <g id="xtick_4">
     <g id="line2d_4">
      <g>
       <use xlink:href="#m9ae86a6499" x="252.842097" y="254.016" style="stroke: #000000; stroke-width: 0.6"/>
      </g>
     </g>
     <g id="text_4">
      <text style="font-size: 8px; font-family: 'Arial', 'Helvetica', 'DejaVu Sans', sans-serif; text-anchor: middle" x="252.842097" y="266.24225" transform="rotate(-0 252.842097 266.24225)">3000</text>
     </g>
    </g>
    <g id="xtick_5">
     <g id="line2d_5">
      <g>
       <use xlink:href="#m9ae86a6499" x="316.290797" y="254.016" style="stroke: #000000; stroke-width: 0.6"/>
      </g>
     </g>
     <g id="text_5">
      <text style="font-size: 8px; font-family: 'Arial', 'Helvetica', 'DejaVu Sans', sans-serif; text-anchor: middle" x="316.290797" y="266.24225" transform="rotate(-0 316.290797 266.24225)">4000</text>
     </g>
    </g>
    <g id="xtick_6">
     <g id="line2d_6">
      <g>
       <use xlink:href="#m9ae86a6499" x="379.739496" y="254.016" style="stroke: #000000; stroke-width: 0.6"/>
      </g>
     </g>
     <g id="text_6">
      <text style="font-size: 8px; font-family: 'Arial', 'Helvetica', 'DejaVu Sans', sans-serif; text-anchor: middle" x="379.739496" y="266.24225" transform="rotate(-0 379.739496 266.24225)">5000</text>
     </g>
    </g>
    <g id="text_7">
     <text style="font-size: 10px; font-family: 'Arial', 'Helvetica', 'DejaVu Sans', sans-serif; text-anchor: middle" x="245.52" y="279.111938" transform="rotate(-0 245.52 279.111938)">Virtual time (s)</text>
    </g>
   </g>
   <g id="matplotlib.axis_2">
    <g id="ytick_1">
     <g id="line2d_7">
      <defs>
       <path id="m766c147bee" d="M 0 0 
L -3 0 
" style="stroke: #000000; stroke-width: 0.6"/>
      </defs>
      <g>
       <use xlink:href="#m766c147bee" x="62.496" y="254.016" style="stroke: #000000; stroke-width: 0.6"/>
      </g>
     </g>
     <g id="text_8">
      <text style="font-size: 8px; font-family: 'Arial', 'Helvetica', 'DejaVu Sans', sans-serif; text-anchor: end" x="55.996" y="256.879125" transform="rotate(-0 55.996 256.879125)">0</text>
     </g>
    </g>
    <g id="ytick_2">
     <g id="line2d_8">
      <g>
       <use xlink:href="#m766c147bee" x="62.496" y="216.216" style="stroke: #000000; stroke-width: 0.6"/>
      </g>
     </g>
     <g id="text_9">
      <text style="font-size: 8px; font-family: 'Arial', 'Helvetica', 'DejaVu Sans', sans-serif; text-anchor: end" x="55.996" y="219.079125" transform="rotate(-0 55.996 219.079125)">2</text>
     </g>
    </g>
    <g id="ytick_3">
     <g id="line2d_9">
      <g>
       <use xlink:href="#m766c147bee" x="62.496" y="178.416" style="stroke: #000000; stroke-width: 0.6"/>
      </g>
     </g>
     <g id="text_10">
      <text style="font-size: 8px; font-family: 'Arial', 'Helvetica', 'DejaVu Sans', sans-serif; text-anchor: end" x="55.996" y="181.279125" transform="rotate(-0 55.996 181.279125)">4</text>
     </g>
    </g>
    <g id="ytick_4">
     <g id="line2d_10">
      <g>
       <use xlink:href="#m766c147bee" x="62.496" y="140.616" style="stroke: #000000; stroke-width: 0.6"/>
      </g>
     </g>
     <g id="text_11">
      <text style="font-size: 8px; font-family: 'Arial', 'Helvetica', 'DejaVu Sans', sans-serif; text-anchor: end" x="55.996" y="143.479125" transform="rotate(-0 55.996 143.479125)">6</text>
     </g>
    </g>
    <g id="ytick_5">
     <g id="line2d_11">
      <g>
       <use xlink:href="#m766c147bee" x="62.496" y="102.816" style="stroke: #000000; stroke-width: 0.6"/>
      </g>
     </g>
     <g id="text_12">
      <text style="font-size: 8px; font-family: 'Arial', 'Helvetica', 'DejaVu Sans', sans-serif; text-anchor: end" x="55.996" y="105.679125" transform="rotate(-0 55.996 105.679125)">8</text>
     </g>
    </g>
    <g id="ytick_6">
     <g id="line2d_12">
      <g>
       <use xlink:href="#m766c147bee" x="62.496" y="65.016" style="stroke: #000000; stroke-width: 0.6"/>
      </g>
     </g>
     <g id="text_13">
      <text style="font-size: 8px; font-family: 'Arial', 'Helvetica', 'DejaVu Sans', sans-serif; text-anchor: end" x="55.996" y="67.879125" transform="rotate(-0 55.996 67.879125)">10</text>
     </g>
    </g>
    <g id="ytick_7">
     <g id="line2d_13">
      <g>
       <use xlink:href="#m766c147bee" x="62.496" y="27.216" style="stroke: #000000; stroke-width: 0.6"/>
      </g>
     </g>
     <g id="text_14">
      <text style="font-size: 8px; font-family: 'Arial', 'Helvetica', 'DejaVu Sans', sans-serif; text-anchor: end" x="55.996" y="30.079125" transform="rotate(-0 55.996 30.079125)">12</text>
     </g>
    </g>
    <g id="text_15">
     <text style="font-size: 10px; font-family: 'Arial', 'Helvetica', 'DejaVu Sans', sans-serif; text-anchor: middle" x="41.111" y="140.616" transform="rotate(-90 41.111 140.616)">Cleared sources</text>
    </g>
   </g>
   <g id="line2d_14">
    <path d="M 62.496 254.016 
L 88.735061 254.016 
L 88.735061 235.116 
L 103.812816 235.116 
L 103.812816 216.216 
L 123.518572 216.216 
L 123.518572 197.316 
L 152.853467 197.316 
L 152.853467 178.416 
L 171.880174 178.416 
L 171.880174 159.516 
L 204.020315 159.516 
L 204.020315 140.616 
L 223.773464 140.616 
L 223.773464 121.716 
L 283.656828 121.716 
L 283.656828 102.816 
L 302.747773 102.816 
L 302.747773 83.916 
L 341.947938 83.916 
L 341.947938 65.016 
L 385.276414 65.016 
L 385.276414 46.116 
L 411.113143 46.116 
L 411.113143 46.116 
" clip-path="url(#pe2ae04fd3f)" style="fill: none; stroke-dasharray: 5.55,2.4; stroke-dashoffset: 0; stroke: #d55e00; stroke-width: 1.5"/>
   </g>
   <g id="line2d_15">
    <path d="M 62.496 254.016 
L 83.959381 254.016 
L 83.959381 235.116 
L 100.041282 235.116 
L 100.041282 216.216 
L 104.213504 216.216 
L 104.213504 197.316 
L 117.80591 197.316 
L 117.80591 178.416 
L 138.791013 178.416 
L 138.791013 159.516 
L 165.309357 159.516 
L 165.309357 140.616 
L 173.112976 140.616 
L 173.112976 121.716 
L 194.598205 121.716 
L 194.598205 102.816 
L 209.021843 102.816 
L 209.021843 83.916 
L 214.236493 83.916 
L 214.236493 65.016 
L 257.175387 65.016 
L 257.175387 46.116 
L 257.175387 46.116 
L 257.175387 46.116 
" clip-path="url(#pe2ae04fd3f)" style="fill: none; stroke: #0072b2; stroke-width: 1.5; stroke-linecap: square"/>
   </g>
   <g id="patch_3">
    <path d="M 62.496 254.016 
L 62.496 27.216 
" style="fill: none; stroke: #000000; stroke-width: 0.7; stroke-linejoin: miter; stroke-linecap: square"/>
   </g>
   <g id="patch_4">
    <path d="M 62.496 254.016 
L 428.544 254.016 
" style="fill: none; stroke: #000000; stroke-width: 0.7; stroke-linejoin: miter; stroke-linecap: square"/>
   </g>
   <g id="legend_1">
    <g id="line2d_16">
     <path d="M 356.26275 231.816 
L 362.66275 231.816 
L 362.66275 231.816 
L 369.06275 231.816 
L 369.06275 231.816 
" style="fill: none; stroke-dasharray: 5.55,2.4; stroke-dashoffset: 0; stroke: #d55e00; stroke-width: 1.5"/>
    </g>
    <g id="text_16">
     <text style="font-size: 8px; font-family: 'Arial', 'Helvetica', 'DejaVu Sans', sans-serif; text-anchor: start" x="375.46275" y="234.616" transform="rotate(-0 375.46275 234.616)">Gemini</text>
    </g>
    <g id="line2d_17">
     <path d="M 356.26275 243.13225 
L 362.66275 243.13225 
L 362.66275 243.13225 
L 369.06275 243.13225 
L 369.06275 243.13225 
" style="fill: none; stroke: #0072b2; stroke-width: 1.5; stroke-linecap: square"/>
    </g>
    <g id="text_17">
     <text style="font-size: 8px; font-family: 'Arial', 'Helvetica', 'DejaVu Sans', sans-serif; text-anchor: start" x="375.46275" y="245.93225" transform="rotate(-0 375.46275 245.93225)">New strategy</text>
    </g>
   </g>
  </g>
 </g>
 <defs>
  <clipPath id="pe2ae04fd3f">
   <rect x="62.496" y="27.216" width="366.048" height="226.8"/>
  </clipPath>
 </defs>
</svg>
